<?xml version="1.0" standalone="no"?>
<svg xmlns="http://www.w3.org/2000/svg" xmlns:xlink="http://www.w3.org/1999/xlink" width="1003pt" height="279pt" viewBox="0.00 0.00 1002.65 278.60">
<g id="graph0" class="graph" transform="translate(4,274.6000061035156) scale(1)" data-name="bsp_lib">

<polygon fill="white" stroke="none" points="-4,4 -4,-274.6 998.65,-274.6 998.65,4 -4,4" style=""/>
<g id="clust1" class="cluster" data-name="clusterLegend">

<polygon fill="none" stroke="black" points="8,-8 8,-262.6 554,-262.6 554,-8 8,-8" style=""/>
<text text-anchor="middle" x="281" y="-246" font-family="Times,serif" font-size="14.00" style="">Legend</text>
</g>
<!-- legendNode0 -->
<g id="node1" class="node" pointer-events="visible" data-name="legendNode0">

<polygon fill="none" stroke="black" points="286.37,-193.85 289.27,-193.95 292.14,-194.1 294.96,-194.29 297.73,-194.54 300.44,-194.83 303.07,-195.16 305.62,-195.55 308.07,-195.98 310.42,-196.45 312.66,-196.96 314.78,-197.51 316.76,-198.11 318.62,-198.74 320.34,-199.41 321.91,-200.11 323.33,-200.84 324.61,-201.6 325.73,-202.39 326.7,-203.21 327.51,-204.05 328.17,-204.91 328.67,-205.79 329.02,-206.69 329.22,-207.6 329.28,-208.52 329.19,-209.45 328.96,-210.39 328.59,-211.33 328.1,-212.27 327.48,-213.21 326.75,-214.15 325.9,-215.08 324.94,-216 323.89,-216.91 322.74,-217.81 321.5,-218.69 320.19,-219.55 318.79,-220.39 317.33,-221.21 315.81,-222 314.23,-222.76 312.6,-223.49 310.93,-224.19 309.21,-224.86 307.46,-225.49 305.67,-226.09 303.86,-226.64 302.03,-227.15 300.17,-227.62 298.3,-228.05 296.41,-228.44 294.51,-228.77 292.6,-229.06 290.68,-229.31 288.76,-229.5 286.83,-229.65 284.9,-229.75 282.97,-229.8 281.03,-229.8 279.1,-229.75 277.17,-229.65 275.24,-229.5 273.32,-229.31 271.4,-229.06 269.49,-228.77 267.59,-228.44 265.7,-228.05 263.83,-227.62 261.97,-227.15 260.14,-226.64 258.33,-226.09 256.54,-225.49 254.79,-224.86 253.07,-224.19 251.4,-223.49 249.77,-222.76 248.19,-222 246.67,-221.21 245.21,-220.39 243.81,-219.55 242.5,-218.69 241.26,-217.81 240.11,-216.91 239.06,-216 238.1,-215.08 237.25,-214.15 236.52,-213.21 235.9,-212.27 235.41,-211.33 235.04,-210.39 234.81,-209.45 234.72,-208.52 234.78,-207.6 234.98,-206.69 235.33,-205.79 235.83,-204.91 236.49,-204.05 237.3,-203.21 238.27,-202.39 239.39,-201.6 240.67,-200.84 242.09,-200.11 243.66,-199.41 245.38,-198.74 247.24,-198.11 249.22,-197.51 251.34,-196.96 253.58,-196.45 255.93,-195.98 258.38,-195.55 260.93,-195.16 263.56,-194.83 266.27,-194.54 269.04,-194.29 271.86,-194.1 274.73,-193.95 277.63,-193.85 280.54,-193.8 283.46,-193.8 286.37,-193.85" style=""/>
<text text-anchor="middle" x="282" y="-208.2" font-family="Times,serif" font-size="12.00" style="">Executable</text>
</g>
<!-- legendNode1 -->
<g id="node2" class="node" pointer-events="visible" data-name="legendNode1">

<polygon fill="none" stroke="black" points="397.81,-123.34 397.81,-138.26 364.53,-148.8 317.47,-148.8 284.19,-138.26 284.19,-123.34 317.47,-112.8 364.53,-112.8 397.81,-123.34" style=""/>
<text text-anchor="middle" x="341" y="-127.2" font-family="Times,serif" font-size="12.00" style="">Static Library</text>
</g>
<!-- legendNode0&#45;&gt;legendNode1 -->
<g id="edge1" class="edge" data-name="legendNode0-&gt;legendNode1">

<path fill="none" stroke="black" d="M294.51,-194.05C302.31,-183.61 312.5,-169.96 321.35,-158.1" style=""/>
<polygon fill="black" stroke="black" points="324.01,-160.4 327.19,-150.29 318.4,-156.21 324.01,-160.4" style=""/>
</g>
<!-- legendNode2 -->
<g id="node3" class="node" pointer-events="visible" data-name="legendNode2">

<polygon fill="none" stroke="black" points="542.09,-123.34 542.09,-138.26 506.3,-148.8 455.7,-148.8 419.91,-138.26 419.91,-123.34 455.7,-112.8 506.3,-112.8 542.09,-123.34" style=""/>
<polygon fill="none" stroke="black" points="546.09,-120.35 546.09,-141.25 506.88,-152.8 455.12,-152.8 415.91,-141.25 415.91,-120.35 455.12,-108.8 506.88,-108.8 546.09,-120.35" style=""/>
<text text-anchor="middle" x="481" y="-127.2" font-family="Times,serif" font-size="12.00" style="">Shared Library</text>
</g>
<!-- legendNode0&#45;&gt;legendNode2 -->
<g id="edge2" class="edge" data-name="legendNode0-&gt;legendNode2">

<path fill="none" stroke="black" d="M315.76,-197.4C346.74,-185.1 393.12,-166.69 428.87,-152.5" style=""/>
<polygon fill="black" stroke="black" points="429.7,-155.93 437.71,-148.99 427.12,-149.42 429.7,-155.93" style=""/>
</g>
<!-- legendNode3 -->
<g id="node4" class="node" pointer-events="visible" data-name="legendNode3">

<polygon fill="none" stroke="black" points="151.66,-123.34 151.66,-138.26 114.37,-148.8 61.63,-148.8 24.34,-138.26 24.34,-123.34 61.63,-112.8 114.37,-112.8 151.66,-123.34" style=""/>
<polygon fill="none" stroke="black" points="155.65,-120.32 155.65,-141.28 114.92,-152.8 61.08,-152.8 20.35,-141.28 20.35,-120.32 61.08,-108.8 114.92,-108.8 155.65,-120.32" style=""/>
<polygon fill="none" stroke="black" points="159.64,-117.29 159.64,-144.31 115.47,-156.8 60.53,-156.8 16.36,-144.31 16.36,-117.29 60.53,-104.8 115.47,-104.8 159.64,-117.29" style=""/>
<text text-anchor="middle" x="88" y="-127.2" font-family="Times,serif" font-size="12.00" style="">Module Library</text>
</g>
<!-- legendNode0&#45;&gt;legendNode3 -->
<!-- legendNode7 -->
<g id="node8" class="node" pointer-events="visible" data-name="legendNode7">

<polygon fill="none" stroke="black" points="265.65,-148.8 178.35,-148.8 178.35,-112.8 265.65,-112.8 265.65,-148.8" style=""/>
<text text-anchor="middle" x="222" y="-127.2" font-family="Times,serif" font-size="12.00" style="">Custom Target</text>
</g>
<!-- legendNode0&#45;&gt;legendNode7 -->
<!-- legendNode4 -->
<g id="node5" class="node" pointer-events="visible" data-name="legendNode4">

<polygon fill="none" stroke="black" points="399.12,-39.56 322,-52 244.88,-39.56 274.34,-19.44 369.66,-19.44 399.12,-39.56" style=""/>
<text text-anchor="middle" x="322" y="-30.4" font-family="Times,serif" font-size="12.00" style="">Interface Library</text>
</g>
<!-- legendNode1&#45;&gt;legendNode4 -->
<g id="edge4" class="edge" data-name="legendNode1-&gt;legendNode4">

<path fill="none" stroke="black" stroke-dasharray="5,2" d="M337.52,-112.41C334.72,-98.48 330.75,-78.66 327.52,-62.57" style=""/>
<polygon fill="black" stroke="black" points="331.03,-62.24 325.63,-53.13 324.17,-63.62 331.03,-62.24" style=""/>
<text text-anchor="middle" x="357.87" y="-74.2" font-family="Times,serif" font-size="14.00" style="">Interface</text>
</g>
<!-- legendNode5 -->
<g id="node6" class="node" pointer-events="visible" data-name="legendNode5">

<polygon fill="none" stroke="black" points="545.28,-34 513.14,-52 448.86,-52 416.72,-34 448.86,-16 513.14,-16 545.28,-34" style=""/>
<text text-anchor="middle" x="481" y="-30.4" font-family="Times,serif" font-size="12.00" style="">Object Library</text>
</g>
<!-- legendNode2&#45;&gt;legendNode5 -->
<g id="edge5" class="edge" data-name="legendNode2-&gt;legendNode5">

<path fill="none" stroke="black" stroke-dasharray="1,5" d="M481,-108.76C481,-95.55 481,-78.33 481,-63.86" style=""/>
<polygon fill="black" stroke="black" points="484.5,-64 481,-54 477.5,-64 484.5,-64" style=""/>
<text text-anchor="middle" x="500.83" y="-74.2" font-family="Times,serif" font-size="14.00" style="">Private</text>
</g>
<!-- legendNode6 -->
<g id="node7" class="node" pointer-events="visible" data-name="legendNode6">

<polygon fill="none" stroke="black" points="161.56,-29.99 147.19,-45.22 89,-52 30.81,-45.22 16.44,-29.99 56.71,-17.78 121.29,-17.78 161.56,-29.99" style=""/>
<text text-anchor="middle" x="89" y="-30.4" font-family="Times,serif" font-size="12.00" style="">Unknown Library</text>
</g>
<!-- legendNode3&#45;&gt;legendNode6 -->
<g id="edge6" class="edge" data-name="legendNode3-&gt;legendNode6">

<path fill="none" stroke="black" d="M88.27,-104.4C88.4,-91.8 88.56,-76.54 88.7,-63.54" style=""/>
<polygon fill="black" stroke="black" points="92.19,-63.93 88.8,-53.89 85.2,-63.85 92.19,-63.93" style=""/>
</g>
<!-- node0 -->
<g id="node9" class="node" pointer-events="visible" data-name="node0">

<polygon fill="none" stroke="black" points="693.49,-204.34 693.49,-219.26 670.94,-229.8 639.06,-229.8 616.51,-219.26 616.51,-204.34 639.06,-193.8 670.94,-193.8 693.49,-204.34" style=""/>
<text text-anchor="middle" x="655" y="-208.2" font-family="Times,serif" font-size="12.00" style="">bsp_adc</text>
</g>
<!-- node1 -->
<g id="node10" class="node" pointer-events="visible" data-name="node1">

<polygon fill="none" stroke="black" points="964.87,-39.56 901,-52 837.13,-39.56 861.53,-19.44 940.47,-19.44 964.87,-39.56" style=""/>
<text text-anchor="middle" x="901" y="-30.4" font-family="Times,serif" font-size="12.00" style="">bsp_common</text>
</g>
<!-- node0&#45;&gt;node1 -->
<g id="edge8" class="edge" data-name="node0-&gt;node1">

<path fill="none" stroke="black" d="M693.97,-206.34C769.52,-197.31 929.98,-176.06 946,-156.8 970.11,-127.8 943.5,-84.7 922.16,-58.3" style=""/>
<polygon fill="black" stroke="black" points="925.01,-56.26 915.89,-50.87 919.66,-60.77 925.01,-56.26" style=""/>
</g>
<!-- node2 -->
<g id="node11" class="node" pointer-events="visible" data-name="node2">

<polygon fill="none" stroke="black" points="708.42,-123.34 708.42,-138.26 677.13,-148.8 632.87,-148.8 601.58,-138.26 601.58,-123.34 632.87,-112.8 677.13,-112.8 708.42,-123.34" style=""/>
<text text-anchor="middle" x="655" y="-127.2" font-family="Times,serif" font-size="12.00" style="">bsp_swtimer</text>
</g>
<!-- node0&#45;&gt;node2 -->
<g id="edge11" class="edge" data-name="node0-&gt;node2">

<path fill="none" stroke="black" d="M655,-193.66C655,-183.99 655,-171.67 655,-160.56" style=""/>
<polygon fill="black" stroke="black" points="658.5,-160.69 655,-150.69 651.5,-160.69 658.5,-160.69" style=""/>
</g>
<!-- node3 -->
<g id="node12" class="node" pointer-events="visible" data-name="node3">

<polygon fill="none" stroke="black" points="776.19,-26.54 776.19,-41.46 752.65,-52 719.35,-52 695.81,-41.46 695.81,-26.54 719.35,-16 752.65,-16 776.19,-26.54" style=""/>
<text text-anchor="middle" x="736" y="-30.4" font-family="Times,serif" font-size="12.00" style="">cpb::v02</text>
</g>
<!-- node0&#45;&gt;node3 -->
<g id="edge12" class="edge" data-name="node0-&gt;node3">

<path fill="none" stroke="black" stroke-dasharray="1,5" d="M630.95,-197.14C617.05,-187.77 600.81,-173.95 593,-156.8 583.43,-135.77 580.76,-124.4 593,-104.8 613.25,-72.38 653.38,-54.62 685.99,-45.14" style=""/>
<polygon fill="black" stroke="black" points="686.52,-48.62 695.26,-42.62 684.69,-41.86 686.52,-48.62" style=""/>
</g>
<!-- node2&#45;&gt;node1 -->
<g id="edge9" class="edge" data-name="node2-&gt;node1">

<path fill="none" stroke="black" d="M689.46,-116.52C734.36,-99.22 812.75,-69.01 860.45,-50.63" style=""/>
<polygon fill="black" stroke="black" points="861.53,-53.96 869.6,-47.1 859.01,-47.43 861.53,-53.96" style=""/>
</g>
<!-- node2&#45;&gt;node3 -->
<g id="edge10" class="edge" data-name="node2-&gt;node3">

<path fill="none" stroke="black" stroke-dasharray="1,5" d="M669.86,-112.41C682.19,-97.98 699.91,-77.24 713.9,-60.86" style=""/>
<polygon fill="black" stroke="black" points="716.42,-63.3 720.25,-53.43 711.1,-58.76 716.42,-63.3" style=""/>
</g>
<!-- node4 -->
<g id="node13" class="node" pointer-events="visible" data-name="node4">

<polygon fill="none" stroke="black" points="846.46,-123.34 846.46,-138.26 822.18,-148.8 787.82,-148.8 763.54,-138.26 763.54,-123.34 787.82,-112.8 822.18,-112.8 846.46,-123.34" style=""/>
<text text-anchor="middle" x="805" y="-127.2" font-family="Times,serif" font-size="12.00" style="">bsp_gpio</text>
</g>
<!-- node4&#45;&gt;node1 -->
<g id="edge13" class="edge" data-name="node4-&gt;node1">

<path fill="none" stroke="black" d="M822.16,-112.85C837.92,-97.29 861.37,-74.14 878.6,-57.12" style=""/>
<polygon fill="black" stroke="black" points="880.76,-59.9 885.42,-50.39 875.84,-54.92 880.76,-59.9" style=""/>
</g>
<!-- node4&#45;&gt;node3 -->
<g id="edge14" class="edge" data-name="node4-&gt;node3">

<path fill="none" stroke="black" stroke-dasharray="1,5" d="M792.34,-112.41C781.94,-98.11 767.02,-77.62 755.16,-61.32" style=""/>
<polygon fill="black" stroke="black" points="758.18,-59.53 749.47,-53.5 752.52,-63.65 758.18,-59.53" style=""/>
</g>
<!-- node5 -->
<g id="node14" class="node" pointer-events="visible" data-name="node5">

<polygon fill="none" stroke="black" points="899.74,-204.34 899.74,-219.26 878.22,-229.8 847.78,-229.8 826.26,-219.26 826.26,-204.34 847.78,-193.8 878.22,-193.8 899.74,-204.34" style=""/>
<text text-anchor="middle" x="863" y="-208.2" font-family="Times,serif" font-size="12.00" style="">bsp_led</text>
</g>
<!-- node5&#45;&gt;node1 -->
<g id="edge15" class="edge" data-name="node5-&gt;node1">

<path fill="none" stroke="black" d="M900.03,-204.4C927.01,-197.58 961.74,-183.87 979,-156.8 999.74,-124.27 999.96,-102.38 979,-70 972.89,-60.56 963.57,-53.64 953.47,-48.58" style=""/>
<polygon fill="black" stroke="black" points="955.15,-45.5 944.59,-44.72 952.36,-51.92 955.15,-45.5" style=""/>
</g>
<!-- node5&#45;&gt;node2 -->
<g id="edge17" class="edge" data-name="node5-&gt;node2">

<path fill="none" stroke="black" stroke-dasharray="1,5" d="M825.96,-205.14C796.86,-199.86 755.74,-190.55 722,-175.8 709.8,-170.46 697.35,-162.97 686.56,-155.67" style=""/>
<polygon fill="black" stroke="black" points="688.6,-152.83 678.4,-149.97 684.59,-158.57 688.6,-152.83" style=""/>
</g>
<!-- node5&#45;&gt;node3 -->
<g id="edge18" class="edge" data-name="node5-&gt;node3">

<path fill="none" stroke="black" stroke-dasharray="1,5" d="M828.79,-202.67C804.31,-195.02 772.68,-181.01 755,-156.8 735.18,-129.68 732.52,-90.02 733.43,-63.4" style=""/>
<polygon fill="black" stroke="black" points="736.91,-63.87 733.97,-53.69 729.92,-63.49 736.91,-63.87" style=""/>
</g>
<!-- node5&#45;&gt;node4 -->
<g id="edge16" class="edge" data-name="node5-&gt;node4">

<path fill="none" stroke="black" stroke-dasharray="1,5" d="M850.41,-193.66C842.87,-183.38 833.11,-170.08 824.57,-158.45" style=""/>
<polygon fill="black" stroke="black" points="827.4,-156.39 818.66,-150.4 821.75,-160.53 827.4,-156.39" style=""/>
</g>
<!-- node6 -->
<g id="node15" class="node" pointer-events="visible" data-name="node6">

<polygon fill="none" stroke="black" points="937.33,-123.34 937.33,-138.26 916.05,-148.8 885.95,-148.8 864.67,-138.26 864.67,-123.34 885.95,-112.8 916.05,-112.8 937.33,-123.34" style=""/>
<text text-anchor="middle" x="901" y="-127.2" font-family="Times,serif" font-size="12.00" style="">bsp_spi</text>
</g>
<!-- node6&#45;&gt;node1 -->
<g id="edge19" class="edge" data-name="node6-&gt;node1">

<path fill="none" stroke="black" d="M901,-112.41C901,-98.78 901,-79.53 901,-63.63" style=""/>
<polygon fill="black" stroke="black" points="904.5,-63.79 901,-53.79 897.5,-63.79 904.5,-63.79" style=""/>
</g>
<!-- node6&#45;&gt;node3 -->
<g id="edge20" class="edge" data-name="node6-&gt;node3">

<path fill="none" stroke="black" stroke-dasharray="1,5" d="M877.71,-116.42C849.65,-100.3 802.29,-73.09 770.11,-54.6" style=""/>
<polygon fill="black" stroke="black" points="771.97,-51.63 761.56,-49.68 768.48,-57.7 771.97,-51.63" style=""/>
</g>
</g>
</svg>