<?xml version="1.0" standalone="no"?>
<svg xmlns="http://www.w3.org/2000/svg" xmlns:xlink="http://www.w3.org/1999/xlink" width="1097pt" height="279pt" viewBox="0.00 0.00 1096.57 278.60">
<g id="graph0" class="graph" transform="translate(4,274.6000061035156) scale(1)" data-name="bsp_lib">

<polygon fill="white" stroke="none" points="-4,4 -4,-274.6 1092.57,-274.6 1092.57,4 -4,4" style=""/>
<g id="clust1" class="cluster" data-name="clusterLegend">

<polygon fill="none" stroke="black" points="8,-8 8,-262.6 554,-262.6 554,-8 8,-8" style=""/>
<text text-anchor="middle" x="281" y="-246" font-family="Times,serif" font-size="14.00" style="">Legend</text>
</g>
<!-- legendNode0 -->
<g id="node1" class="node" pointer-events="visible" data-name="legendNode0">

<polygon fill="none" stroke="black" points="294.37,-193.85 297.27,-193.95 300.14,-194.1 302.96,-194.29 305.73,-194.54 308.44,-194.83 311.07,-195.16 313.62,-195.55 316.07,-195.98 318.42,-196.45 320.66,-196.96 322.78,-197.51 324.76,-198.11 326.62,-198.74 328.34,-199.41 329.91,-200.11 331.33,-200.84 332.61,-201.6 333.73,-202.39 334.7,-203.21 335.51,-204.05 336.17,-204.91 336.67,-205.79 337.02,-206.69 337.22,-207.6 337.28,-208.52 337.19,-209.45 336.96,-210.39 336.59,-211.33 336.1,-212.27 335.48,-213.21 334.75,-214.15 333.9,-215.08 332.94,-216 331.89,-216.91 330.74,-217.81 329.5,-218.69 328.19,-219.55 326.79,-220.39 325.33,-221.21 323.81,-222 322.23,-222.76 320.6,-223.49 318.93,-224.19 317.21,-224.86 315.46,-225.49 313.67,-226.09 311.86,-226.64 310.03,-227.15 308.17,-227.62 306.3,-228.05 304.41,-228.44 302.51,-228.77 300.6,-229.06 298.68,-229.31 296.76,-229.5 294.83,-229.65 292.9,-229.75 290.97,-229.8 289.03,-229.8 287.1,-229.75 285.17,-229.65 283.24,-229.5 281.32,-229.31 279.4,-229.06 277.49,-228.77 275.59,-228.44 273.7,-228.05 271.83,-227.62 269.97,-227.15 268.14,-226.64 266.33,-226.09 264.54,-225.49 262.79,-224.86 261.07,-224.19 259.4,-223.49 257.77,-222.76 256.19,-222 254.67,-221.21 253.21,-220.39 251.81,-219.55 250.5,-218.69 249.26,-217.81 248.11,-216.91 247.06,-216 246.1,-215.08 245.25,-214.15 244.52,-213.21 243.9,-212.27 243.41,-211.33 243.04,-210.39 242.81,-209.45 242.72,-208.52 242.78,-207.6 242.98,-206.69 243.33,-205.79 243.83,-204.91 244.49,-204.05 245.3,-203.21 246.27,-202.39 247.39,-201.6 248.67,-200.84 250.09,-200.11 251.66,-199.41 253.38,-198.74 255.24,-198.11 257.22,-197.51 259.34,-196.96 261.58,-196.45 263.93,-195.98 266.38,-195.55 268.93,-195.16 271.56,-194.83 274.27,-194.54 277.04,-194.29 279.86,-194.1 282.73,-193.95 285.63,-193.85 288.54,-193.8 291.46,-193.8 294.37,-193.85" style=""/>
<text text-anchor="middle" x="290" y="-208.2" font-family="Times,serif" font-size="12.00" style="">Executable</text>
</g>
<!-- legendNode1 -->
<g id="node2" class="node" pointer-events="visible" data-name="legendNode1">

<polygon fill="none" stroke="black" points="129.81,-123.34 129.81,-138.26 96.53,-148.8 49.47,-148.8 16.19,-138.26 16.19,-123.34 49.47,-112.8 96.53,-112.8 129.81,-123.34" style=""/>
<text text-anchor="middle" x="73" y="-127.2" font-family="Times,serif" font-size="12.00" style="">Static Library</text>
</g>
<!-- legendNode0&#45;&gt;legendNode1 -->
<g id="edge1" class="edge" data-name="legendNode0-&gt;legendNode1">

<path fill="none" stroke="black" d="M253.93,-198.11C223.3,-187.29 178.19,-171.23 139,-156.8 132.51,-154.41 125.67,-151.86 118.96,-149.34" style=""/>
<polygon fill="black" stroke="black" points="120.59,-146.21 109.99,-145.95 118.11,-152.76 120.59,-146.21" style=""/>
</g>
<!-- legendNode2 -->
<g id="node3" class="node" pointer-events="visible" data-name="legendNode2">

<polygon fill="none" stroke="black" points="274.09,-123.34 274.09,-138.26 238.3,-148.8 187.7,-148.8 151.91,-138.26 151.91,-123.34 187.7,-112.8 238.3,-112.8 274.09,-123.34" style=""/>
<polygon fill="none" stroke="black" points="278.09,-120.35 278.09,-141.25 238.88,-152.8 187.12,-152.8 147.91,-141.25 147.91,-120.35 187.12,-108.8 238.88,-108.8 278.09,-120.35" style=""/>
<text text-anchor="middle" x="213" y="-127.2" font-family="Times,serif" font-size="12.00" style="">Shared Library</text>
</g>
<!-- legendNode0&#45;&gt;legendNode2 -->
<g id="edge2" class="edge" data-name="legendNode0-&gt;legendNode2">

<path fill="none" stroke="black" d="M274.05,-194.43C264.69,-184.83 252.59,-172.41 241.63,-161.17" style=""/>
<polygon fill="black" stroke="black" points="244.45,-159.05 234.96,-154.33 239.44,-163.94 244.45,-159.05" style=""/>
</g>
<!-- legendNode3 -->
<g id="node4" class="node" pointer-events="visible" data-name="legendNode3">

<polygon fill="none" stroke="black" points="431.66,-123.34 431.66,-138.26 394.37,-148.8 341.63,-148.8 304.34,-138.26 304.34,-123.34 341.63,-112.8 394.37,-112.8 431.66,-123.34" style=""/>
<polygon fill="none" stroke="black" points="435.65,-120.32 435.65,-141.28 394.92,-152.8 341.08,-152.8 300.35,-141.28 300.35,-120.32 341.08,-108.8 394.92,-108.8 435.65,-120.32" style=""/>
<polygon fill="none" stroke="black" points="439.64,-117.29 439.64,-144.31 395.47,-156.8 340.53,-156.8 296.36,-144.31 296.36,-117.29 340.53,-104.8 395.47,-104.8 439.64,-117.29" style=""/>
<text text-anchor="middle" x="368" y="-127.2" font-family="Times,serif" font-size="12.00" style="">Module Library</text>
</g>
<!-- legendNode0&#45;&gt;legendNode3 -->
<!-- legendNode7 -->
<g id="node8" class="node" pointer-events="visible" data-name="legendNode7">

<polygon fill="none" stroke="black" points="545.65,-148.8 458.35,-148.8 458.35,-112.8 545.65,-112.8 545.65,-148.8" style=""/>
<text text-anchor="middle" x="502" y="-127.2" font-family="Times,serif" font-size="12.00" style="">Custom Target</text>
</g>
<!-- legendNode0&#45;&gt;legendNode7 -->
<!-- legendNode4 -->
<g id="node5" class="node" pointer-events="visible" data-name="legendNode4">

<polygon fill="none" stroke="black" points="170.12,-39.56 93,-52 15.88,-39.56 45.34,-19.44 140.66,-19.44 170.12,-39.56" style=""/>
<text text-anchor="middle" x="93" y="-30.4" font-family="Times,serif" font-size="12.00" style="">Interface Library</text>
</g>
<!-- legendNode1&#45;&gt;legendNode4 -->
<g id="edge4" class="edge" data-name="legendNode1-&gt;legendNode4">

<path fill="none" stroke="black" stroke-dasharray="5,2" d="M76.67,-112.41C79.61,-98.48 83.79,-78.66 87.18,-62.57" style=""/>
<polygon fill="black" stroke="black" points="90.54,-63.63 89.18,-53.12 83.69,-62.18 90.54,-63.63" style=""/>
<text text-anchor="middle" x="110.87" y="-74.2" font-family="Times,serif" font-size="14.00" style="">Interface</text>
</g>
<!-- legendNode5 -->
<g id="node6" class="node" pointer-events="visible" data-name="legendNode5">

<polygon fill="none" stroke="black" points="316.28,-34 284.14,-52 219.86,-52 187.72,-34 219.86,-16 284.14,-16 316.28,-34" style=""/>
<text text-anchor="middle" x="252" y="-30.4" font-family="Times,serif" font-size="12.00" style="">Object Library</text>
</g>
<!-- legendNode2&#45;&gt;legendNode5 -->
<g id="edge5" class="edge" data-name="legendNode2-&gt;legendNode5">

<path fill="none" stroke="black" stroke-dasharray="1,5" d="M221.66,-108.76C227.2,-95.29 234.46,-77.64 240.48,-62.99" style=""/>
<polygon fill="black" stroke="black" points="243.66,-64.47 244.23,-53.89 237.19,-61.8 243.66,-64.47" style=""/>
<text text-anchor="middle" x="257.83" y="-74.2" font-family="Times,serif" font-size="14.00" style="">Private</text>
</g>
<!-- legendNode6 -->
<g id="node7" class="node" pointer-events="visible" data-name="legendNode6">

<polygon fill="none" stroke="black" points="479.56,-29.99 465.19,-45.22 407,-52 348.81,-45.22 334.44,-29.99 374.71,-17.78 439.29,-17.78 479.56,-29.99" style=""/>
<text text-anchor="middle" x="407" y="-30.4" font-family="Times,serif" font-size="12.00" style="">Unknown Library</text>
</g>
<!-- legendNode3&#45;&gt;legendNode6 -->
<g id="edge6" class="edge" data-name="legendNode3-&gt;legendNode6">

<path fill="none" stroke="black" d="M378.45,-104.4C383.85,-91.28 390.43,-75.29 395.91,-61.96" style=""/>
<polygon fill="black" stroke="black" points="399.06,-63.49 399.63,-52.91 392.59,-60.83 399.06,-63.49" style=""/>
</g>
<!-- node0 -->
<g id="node9" class="node" pointer-events="visible" data-name="node0">

<polygon fill="none" stroke="black" points="923.49,-204.34 923.49,-219.26 900.94,-229.8 869.06,-229.8 846.51,-219.26 846.51,-204.34 869.06,-193.8 900.94,-193.8 923.49,-204.34" style=""/>
<text text-anchor="middle" x="885" y="-208.2" font-family="Times,serif" font-size="12.00" style="">bsp_adc</text>
</g>
<!-- node1 -->
<g id="node10" class="node" pointer-events="visible" data-name="node1">

<polygon fill="none" stroke="black" points="999.87,-39.56 936,-52 872.13,-39.56 896.53,-19.44 975.47,-19.44 999.87,-39.56" style=""/>
<text text-anchor="middle" x="936" y="-30.4" font-family="Times,serif" font-size="12.00" style="">bsp_common</text>
</g>
<!-- node0&#45;&gt;node1 -->
<g id="edge8" class="edge" data-name="node0-&gt;node1">

<path fill="none" stroke="black" d="M923.77,-205.07C972.9,-196.92 1053.33,-180.33 1071,-156.8 1094.17,-125.95 1094.61,-100.51 1071,-70 1061.93,-58.28 1030.64,-49.76 1000.47,-44.06" style=""/>
<polygon fill="black" stroke="black" points="1001.4,-40.67 990.94,-42.36 1000.17,-47.57 1001.4,-40.67" style=""/>
</g>
<!-- node2 -->
<g id="node11" class="node" pointer-events="visible" data-name="node2">

<polygon fill="none" stroke="black" points="938.42,-123.34 938.42,-138.26 907.13,-148.8 862.87,-148.8 831.58,-138.26 831.58,-123.34 862.87,-112.8 907.13,-112.8 938.42,-123.34" style=""/>
<text text-anchor="middle" x="885" y="-127.2" font-family="Times,serif" font-size="12.00" style="">bsp_swtimer</text>
</g>
<!-- node0&#45;&gt;node2 -->
<g id="edge11" class="edge" data-name="node0-&gt;node2">

<path fill="none" stroke="black" d="M885,-193.66C885,-183.99 885,-171.67 885,-160.56" style=""/>
<polygon fill="black" stroke="black" points="888.5,-160.69 885,-150.69 881.5,-160.69 888.5,-160.69" style=""/>
</g>
<!-- node3 -->
<g id="node12" class="node" pointer-events="visible" data-name="node3">

<polygon fill="none" stroke="black" points="774.19,-26.54 774.19,-41.46 750.65,-52 717.35,-52 693.81,-41.46 693.81,-26.54 717.35,-16 750.65,-16 774.19,-26.54" style=""/>
<text text-anchor="middle" x="734" y="-30.4" font-family="Times,serif" font-size="12.00" style="">cpb::v02</text>
</g>
<!-- node0&#45;&gt;node3 -->
<g id="edge12" class="edge" data-name="node0-&gt;node3">

<path fill="none" stroke="black" stroke-dasharray="1,5" d="M846.3,-209.21C809.82,-205.4 756.97,-193.43 731,-156.8 711.71,-129.59 717.32,-89.7 724.47,-63.06" style=""/>
<polygon fill="black" stroke="black" points="727.78,-64.23 727.25,-53.65 721.07,-62.25 727.78,-64.23" style=""/>
</g>
<!-- node2&#45;&gt;node1 -->
<g id="edge9" class="edge" data-name="node2-&gt;node1">

<path fill="none" stroke="black" d="M894.35,-112.41C902.14,-97.94 913.33,-77.13 922.16,-60.73" style=""/>
<polygon fill="black" stroke="black" points="925.18,-62.5 926.83,-52.04 919.01,-59.19 925.18,-62.5" style=""/>
</g>
<!-- node2&#45;&gt;node3 -->
<g id="edge10" class="edge" data-name="node2-&gt;node3">

<path fill="none" stroke="black" stroke-dasharray="1,5" d="M859.38,-113.72C833.76,-97.63 794.24,-72.82 766.44,-55.37" style=""/>
<polygon fill="black" stroke="black" points="768.38,-52.45 758.05,-50.1 764.66,-58.38 768.38,-52.45" style=""/>
</g>
<!-- node4 -->
<g id="node13" class="node" pointer-events="visible" data-name="node4">

<polygon fill="none" stroke="black" points="684.46,-123.34 684.46,-138.26 660.18,-148.8 625.82,-148.8 601.54,-138.26 601.54,-123.34 625.82,-112.8 660.18,-112.8 684.46,-123.34" style=""/>
<text text-anchor="middle" x="643" y="-127.2" font-family="Times,serif" font-size="12.00" style="">bsp_gpio</text>
</g>
<!-- node4&#45;&gt;node1 -->
<g id="edge13" class="edge" data-name="node4-&gt;node1">

<path fill="none" stroke="black" d="M675.76,-119.2C728.51,-102.13 832.34,-68.54 891.66,-49.34" style=""/>
<polygon fill="black" stroke="black" points="892.68,-52.7 901.11,-46.29 890.52,-46.04 892.68,-52.7" style=""/>
</g>
<!-- node4&#45;&gt;node3 -->
<g id="edge14" class="edge" data-name="node4-&gt;node3">

<path fill="none" stroke="black" stroke-dasharray="1,5" d="M646.9,-112.35C650.53,-99.4 657.08,-81.97 668,-70 674.92,-62.41 683.88,-56.17 692.95,-51.17" style=""/>
<polygon fill="black" stroke="black" points="694.42,-54.34 701.78,-46.72 691.27,-48.09 694.42,-54.34" style=""/>
</g>
<!-- node5 -->
<g id="node14" class="node" pointer-events="visible" data-name="node5">

<polygon fill="none" stroke="black" points="813.74,-123.34 813.74,-138.26 792.22,-148.8 761.78,-148.8 740.26,-138.26 740.26,-123.34 761.78,-112.8 792.22,-112.8 813.74,-123.34" style=""/>
<text text-anchor="middle" x="777" y="-127.2" font-family="Times,serif" font-size="12.00" style="">bsp_i2c</text>
</g>
<!-- node5&#45;&gt;node1 -->
<g id="edge15" class="edge" data-name="node5-&gt;node1">

<path fill="none" stroke="black" d="M799.78,-116.22C827.17,-99.89 873.29,-72.39 904.19,-53.97" style=""/>
<polygon fill="black" stroke="black" points="905.93,-57 912.73,-48.87 902.35,-50.99 905.93,-57" style=""/>
</g>
<!-- node5&#45;&gt;node3 -->
<g id="edge16" class="edge" data-name="node5-&gt;node3">

<path fill="none" stroke="black" stroke-dasharray="1,5" d="M769.11,-112.41C762.81,-98.51 753.85,-78.77 746.56,-62.7" style=""/>
<polygon fill="black" stroke="black" points="749.78,-61.32 742.46,-53.66 743.41,-64.21 749.78,-61.32" style=""/>
</g>
<!-- node6 -->
<g id="node15" class="node" pointer-events="visible" data-name="node6">

<polygon fill="none" stroke="black" points="700.74,-204.34 700.74,-219.26 679.22,-229.8 648.78,-229.8 627.26,-219.26 627.26,-204.34 648.78,-193.8 679.22,-193.8 700.74,-204.34" style=""/>
<text text-anchor="middle" x="664" y="-208.2" font-family="Times,serif" font-size="12.00" style="">bsp_led</text>
</g>
<!-- node6&#45;&gt;node1 -->
<g id="edge17" class="edge" data-name="node6-&gt;node1">

<path fill="none" stroke="black" d="M700.97,-206.77C793.22,-196.56 1026.98,-169.52 1038,-156.8 1053.13,-139.33 1048.7,-125.28 1038,-104.8 1025.13,-80.17 999.19,-62.6 976.68,-51.25" style=""/>
<polygon fill="black" stroke="black" points="978.22,-48.1 967.68,-46.97 975.21,-54.42 978.22,-48.1" style=""/>
</g>
<!-- node6&#45;&gt;node2 -->
<g id="edge19" class="edge" data-name="node6-&gt;node2">

<path fill="none" stroke="black" stroke-dasharray="1,5" d="M694.66,-200.95C726.81,-190.49 778.72,-173.23 823,-156.8 829.06,-154.55 835.43,-152.09 841.67,-149.63" style=""/>
<polygon fill="black" stroke="black" points="842.6,-153.03 850.59,-146.07 840,-146.53 842.6,-153.03" style=""/>
</g>
<!-- node6&#45;&gt;node3 -->
<g id="edge20" class="edge" data-name="node6-&gt;node3">

<path fill="none" stroke="black" stroke-dasharray="1,5" d="M637.99,-198.77C621.81,-189.73 602.36,-175.67 593,-156.8 582.73,-136.09 581.39,-124.78 593,-104.8 611.84,-72.37 651.03,-54.65 683.33,-45.18" style=""/>
<polygon fill="black" stroke="black" points="684.22,-48.57 692.96,-42.57 682.39,-41.81 684.22,-48.57" style=""/>
</g>
<!-- node6&#45;&gt;node4 -->
<g id="edge18" class="edge" data-name="node6-&gt;node4">

<path fill="none" stroke="black" stroke-dasharray="1,5" d="M659.44,-193.66C656.85,-183.89 653.53,-171.4 650.55,-160.21" style=""/>
<polygon fill="black" stroke="black" points="653.96,-159.41 648.01,-150.64 647.2,-161.21 653.96,-159.41" style=""/>
</g>
<!-- node7 -->
<g id="node16" class="node" pointer-events="visible" data-name="node7">

<polygon fill="none" stroke="black" points="1029.33,-123.34 1029.33,-138.26 1008.05,-148.8 977.95,-148.8 956.67,-138.26 956.67,-123.34 977.95,-112.8 1008.05,-112.8 1029.33,-123.34" style=""/>
<text text-anchor="middle" x="993" y="-127.2" font-family="Times,serif" font-size="12.00" style="">bsp_spi</text>
</g>
<!-- node7&#45;&gt;node1 -->
<g id="edge21" class="edge" data-name="node7-&gt;node1">

<path fill="none" stroke="black" d="M988.36,-112.44C984.57,-100.01 978.45,-83.21 970,-70 967.2,-65.63 963.8,-61.34 960.23,-57.35" style=""/>
<polygon fill="black" stroke="black" points="962.86,-55.04 953.41,-50.27 957.82,-59.9 962.86,-55.04" style=""/>
</g>
<!-- node7&#45;&gt;node3 -->
<g id="edge22" class="edge" data-name="node7-&gt;node3">

<path fill="none" stroke="black" stroke-dasharray="1,5" d="M970.01,-116.24C962.78,-112.27 954.68,-108.11 947,-104.8 890.79,-80.55 823.24,-59.75 779.5,-47.31" style=""/>
<polygon fill="black" stroke="black" points="780.68,-44.01 770.1,-44.67 778.78,-50.75 780.68,-44.01" style=""/>
</g>
</g>
</svg>