<?xml version="1.0" standalone="no"?>
<svg xmlns="http://www.w3.org/2000/svg" xmlns:xlink="http://www.w3.org/1999/xlink" width="1143pt" height="336pt" viewBox="0.00 0.00 1142.67 335.60">
<g id="graph0" class="graph" transform="translate(4,331.6000061035156) scale(1)" data-name="bsp_lib">

<polygon fill="white" stroke="none" points="-4,4 -4,-331.6 1138.67,-331.6 1138.67,4 -4,4" style=""/>
<g id="clust1" class="cluster" data-name="clusterLegend">

<polygon fill="none" stroke="black" points="8,-65 8,-319.6 554,-319.6 554,-65 8,-65" style=""/>
<text text-anchor="middle" x="281" y="-303" font-family="Times,serif" font-size="14.00" style="">Legend</text>
</g>
<!-- legendNode0 -->
<g id="node1" class="node" pointer-events="visible" data-name="legendNode0">

<polygon fill="none" stroke="black" points="295.37,-250.85 298.27,-250.95 301.14,-251.1 303.96,-251.29 306.73,-251.54 309.44,-251.83 312.07,-252.16 314.62,-252.55 317.07,-252.98 319.42,-253.45 321.66,-253.96 323.78,-254.51 325.76,-255.11 327.62,-255.74 329.34,-256.41 330.91,-257.11 332.33,-257.84 333.61,-258.6 334.73,-259.39 335.7,-260.21 336.51,-261.05 337.17,-261.91 337.67,-262.79 338.02,-263.69 338.22,-264.6 338.28,-265.52 338.19,-266.45 337.96,-267.39 337.59,-268.33 337.1,-269.27 336.48,-270.21 335.75,-271.15 334.9,-272.08 333.94,-273 332.89,-273.91 331.74,-274.81 330.5,-275.69 329.19,-276.55 327.79,-277.39 326.33,-278.21 324.81,-279 323.23,-279.76 321.6,-280.49 319.93,-281.19 318.21,-281.86 316.46,-282.49 314.67,-283.09 312.86,-283.64 311.03,-284.15 309.17,-284.62 307.3,-285.05 305.41,-285.44 303.51,-285.77 301.6,-286.06 299.68,-286.31 297.76,-286.5 295.83,-286.65 293.9,-286.75 291.97,-286.8 290.03,-286.8 288.1,-286.75 286.17,-286.65 284.24,-286.5 282.32,-286.31 280.4,-286.06 278.49,-285.77 276.59,-285.44 274.7,-285.05 272.83,-284.62 270.97,-284.15 269.14,-283.64 267.33,-283.09 265.54,-282.49 263.79,-281.86 262.07,-281.19 260.4,-280.49 258.77,-279.76 257.19,-279 255.67,-278.21 254.21,-277.39 252.81,-276.55 251.5,-275.69 250.26,-274.81 249.11,-273.91 248.06,-273 247.1,-272.08 246.25,-271.15 245.52,-270.21 244.9,-269.27 244.41,-268.33 244.04,-267.39 243.81,-266.45 243.72,-265.52 243.78,-264.6 243.98,-263.69 244.33,-262.79 244.83,-261.91 245.49,-261.05 246.3,-260.21 247.27,-259.39 248.39,-258.6 249.67,-257.84 251.09,-257.11 252.66,-256.41 254.38,-255.74 256.24,-255.11 258.22,-254.51 260.34,-253.96 262.58,-253.45 264.93,-252.98 267.38,-252.55 269.93,-252.16 272.56,-251.83 275.27,-251.54 278.04,-251.29 280.86,-251.1 283.73,-250.95 286.63,-250.85 289.54,-250.8 292.46,-250.8 295.37,-250.85" style=""/>
<text text-anchor="middle" x="291" y="-265.2" font-family="Times,serif" font-size="12.00" style="">Executable</text>
</g>
<!-- legendNode1 -->
<g id="node2" class="node" pointer-events="visible" data-name="legendNode1">

<polygon fill="none" stroke="black" points="129.81,-180.34 129.81,-195.26 96.53,-205.8 49.47,-205.8 16.19,-195.26 16.19,-180.34 49.47,-169.8 96.53,-169.8 129.81,-180.34" style=""/>
<text text-anchor="middle" x="73" y="-184.2" font-family="Times,serif" font-size="12.00" style="">Static Library</text>
</g>
<!-- legendNode0&#45;&gt;legendNode1 -->
<g id="edge1" class="edge" data-name="legendNode0-&gt;legendNode1">

<path fill="none" stroke="black" d="M254.68,-255.14C223.84,-244.32 178.44,-228.27 139,-213.8 132.51,-211.42 125.67,-208.87 118.96,-206.35" style=""/>
<polygon fill="black" stroke="black" points="120.58,-203.22 109.99,-202.96 118.11,-209.77 120.58,-203.22" style=""/>
</g>
<!-- legendNode2 -->
<g id="node3" class="node" pointer-events="visible" data-name="legendNode2">

<polygon fill="none" stroke="black" points="274.09,-180.34 274.09,-195.26 238.3,-205.8 187.7,-205.8 151.91,-195.26 151.91,-180.34 187.7,-169.8 238.3,-169.8 274.09,-180.34" style=""/>
<polygon fill="none" stroke="black" points="278.09,-177.35 278.09,-198.25 238.88,-209.8 187.12,-209.8 147.91,-198.25 147.91,-177.35 187.12,-165.8 238.88,-165.8 278.09,-177.35" style=""/>
<text text-anchor="middle" x="213" y="-184.2" font-family="Times,serif" font-size="12.00" style="">Shared Library</text>
</g>
<!-- legendNode0&#45;&gt;legendNode2 -->
<g id="edge2" class="edge" data-name="legendNode0-&gt;legendNode2">

<path fill="none" stroke="black" d="M274.84,-251.43C265.36,-241.83 253.1,-229.41 242,-218.17" style=""/>
<polygon fill="black" stroke="black" points="244.76,-215.98 235.24,-211.33 239.78,-220.9 244.76,-215.98" style=""/>
</g>
<!-- legendNode3 -->
<g id="node4" class="node" pointer-events="visible" data-name="legendNode3">

<polygon fill="none" stroke="black" points="431.66,-180.34 431.66,-195.26 394.37,-205.8 341.63,-205.8 304.34,-195.26 304.34,-180.34 341.63,-169.8 394.37,-169.8 431.66,-180.34" style=""/>
<polygon fill="none" stroke="black" points="435.65,-177.32 435.65,-198.28 394.92,-209.8 341.08,-209.8 300.35,-198.28 300.35,-177.32 341.08,-165.8 394.92,-165.8 435.65,-177.32" style=""/>
<polygon fill="none" stroke="black" points="439.64,-174.29 439.64,-201.31 395.47,-213.8 340.53,-213.8 296.36,-201.31 296.36,-174.29 340.53,-161.8 395.47,-161.8 439.64,-174.29" style=""/>
<text text-anchor="middle" x="368" y="-184.2" font-family="Times,serif" font-size="12.00" style="">Module Library</text>
</g>
<!-- legendNode0&#45;&gt;legendNode3 -->
<!-- legendNode7 -->
<g id="node8" class="node" pointer-events="visible" data-name="legendNode7">

<polygon fill="none" stroke="black" points="545.65,-205.8 458.35,-205.8 458.35,-169.8 545.65,-169.8 545.65,-205.8" style=""/>
<text text-anchor="middle" x="502" y="-184.2" font-family="Times,serif" font-size="12.00" style="">Custom Target</text>
</g>
<!-- legendNode0&#45;&gt;legendNode7 -->
<!-- legendNode4 -->
<g id="node5" class="node" pointer-events="visible" data-name="legendNode4">

<polygon fill="none" stroke="black" points="170.12,-96.56 93,-109 15.88,-96.56 45.34,-76.44 140.66,-76.44 170.12,-96.56" style=""/>
<text text-anchor="middle" x="93" y="-87.4" font-family="Times,serif" font-size="12.00" style="">Interface Library</text>
</g>
<!-- legendNode1&#45;&gt;legendNode4 -->
<g id="edge4" class="edge" data-name="legendNode1-&gt;legendNode4">

<path fill="none" stroke="black" stroke-dasharray="5,2" d="M76.67,-169.41C79.61,-155.48 83.79,-135.66 87.18,-119.57" style=""/>
<polygon fill="black" stroke="black" points="90.54,-120.63 89.18,-110.12 83.69,-119.18 90.54,-120.63" style=""/>
<text text-anchor="middle" x="110.87" y="-131.2" font-family="Times,serif" font-size="14.00" style="">Interface</text>
</g>
<!-- legendNode5 -->
<g id="node6" class="node" pointer-events="visible" data-name="legendNode5">

<polygon fill="none" stroke="black" points="316.28,-91 284.14,-109 219.86,-109 187.72,-91 219.86,-73 284.14,-73 316.28,-91" style=""/>
<text text-anchor="middle" x="252" y="-87.4" font-family="Times,serif" font-size="12.00" style="">Object Library</text>
</g>
<!-- legendNode2&#45;&gt;legendNode5 -->
<g id="edge5" class="edge" data-name="legendNode2-&gt;legendNode5">

<path fill="none" stroke="black" stroke-dasharray="1,5" d="M221.66,-165.76C227.2,-152.29 234.46,-134.64 240.48,-119.99" style=""/>
<polygon fill="black" stroke="black" points="243.66,-121.47 244.23,-110.89 237.19,-118.8 243.66,-121.47" style=""/>
<text text-anchor="middle" x="257.83" y="-131.2" font-family="Times,serif" font-size="14.00" style="">Private</text>
</g>
<!-- legendNode6 -->
<g id="node7" class="node" pointer-events="visible" data-name="legendNode6">

<polygon fill="none" stroke="black" points="479.56,-86.99 465.19,-102.22 407,-109 348.81,-102.22 334.44,-86.99 374.71,-74.78 439.29,-74.78 479.56,-86.99" style=""/>
<text text-anchor="middle" x="407" y="-87.4" font-family="Times,serif" font-size="12.00" style="">Unknown Library</text>
</g>
<!-- legendNode3&#45;&gt;legendNode6 -->
<g id="edge6" class="edge" data-name="legendNode3-&gt;legendNode6">

<path fill="none" stroke="black" d="M378.45,-161.4C383.85,-148.28 390.43,-132.29 395.91,-118.96" style=""/>
<polygon fill="black" stroke="black" points="399.06,-120.49 399.63,-109.91 392.59,-117.83 399.06,-120.49" style=""/>
</g>
<!-- node0 -->
<g id="node9" class="node" pointer-events="visible" data-name="node0">

<polygon fill="none" stroke="black" points="1118.49,-180.34 1118.49,-195.26 1095.94,-205.8 1064.06,-205.8 1041.51,-195.26 1041.51,-180.34 1064.06,-169.8 1095.94,-169.8 1118.49,-180.34" style=""/>
<text text-anchor="middle" x="1080" y="-184.2" font-family="Times,serif" font-size="12.00" style="">bsp_adc</text>
</g>
<!-- node1 -->
<g id="node10" class="node" pointer-events="visible" data-name="node1">

<polygon fill="none" stroke="black" points="1094.42,-83.54 1094.42,-98.46 1063.13,-109 1018.87,-109 987.58,-98.46 987.58,-83.54 1018.87,-73 1063.13,-73 1094.42,-83.54" style=""/>
<text text-anchor="middle" x="1041" y="-87.4" font-family="Times,serif" font-size="12.00" style="">bsp_swtimer</text>
</g>
<!-- node0&#45;&gt;node1 -->
<g id="edge10" class="edge" data-name="node0-&gt;node1">

<path fill="none" stroke="black" d="M1072.85,-169.41C1067.13,-155.51 1059.01,-135.77 1052.4,-119.7" style=""/>
<polygon fill="black" stroke="black" points="1055.73,-118.59 1048.68,-110.68 1049.25,-121.26 1055.73,-118.59" style=""/>
</g>
<!-- node3 -->
<g id="node12" class="node" pointer-events="visible" data-name="node3">

<polygon fill="none" stroke="black" points="894.19,-10.54 894.19,-25.46 870.65,-36 837.35,-36 813.81,-25.46 813.81,-10.54 837.35,0 870.65,0 894.19,-10.54" style=""/>
<text text-anchor="middle" x="854" y="-14.4" font-family="Times,serif" font-size="12.00" style="">cpb::v02</text>
</g>
<!-- node0&#45;&gt;node3 -->
<g id="edge11" class="edge" data-name="node0-&gt;node3">

<path fill="none" stroke="black" stroke-dasharray="1,5" d="M1090.93,-169.7C1105.86,-143.97 1128.05,-95.1 1103,-65 1078.43,-35.47 971.37,-24.82 905.89,-21.04" style=""/>
<polygon fill="black" stroke="black" points="906.26,-17.55 896.09,-20.51 905.88,-24.54 906.26,-17.55" style=""/>
</g>
<!-- node2 -->
<g id="node11" class="node" pointer-events="visible" data-name="node2">

<polygon fill="none" stroke="black" points="786.87,-23.56 723,-36 659.13,-23.56 683.53,-3.44 762.47,-3.44 786.87,-23.56" style=""/>
<text text-anchor="middle" x="723" y="-14.4" font-family="Times,serif" font-size="12.00" style="">bsp_common</text>
</g>
<!-- node1&#45;&gt;node2 -->
<g id="edge8" class="edge" data-name="node1-&gt;node2">

<path fill="none" stroke="black" d="M1009.08,-75.82C999.26,-71.87 988.31,-67.88 978,-65 902.9,-44.06 881.63,-50.36 805,-36 795.86,-34.29 786.16,-32.37 776.76,-30.45" style=""/>
<polygon fill="black" stroke="black" points="777.48,-27.03 766.98,-28.44 776.07,-33.88 777.48,-27.03" style=""/>
</g>
<!-- node1&#45;&gt;node3 -->
<g id="edge9" class="edge" data-name="node1-&gt;node3">

<path fill="none" stroke="black" stroke-dasharray="1,5" d="M1007.38,-76.5C997.9,-72.73 987.56,-68.67 978,-65 950.49,-54.44 919.39,-42.91 895.23,-34.03" style=""/>
<polygon fill="black" stroke="black" points="896.66,-30.83 886.07,-30.67 894.25,-37.4 896.66,-30.83" style=""/>
</g>
<!-- node4 -->
<g id="node13" class="node" pointer-events="visible" data-name="node4">

<polygon fill="none" stroke="black" points="1049.49,-261.34 1049.49,-276.26 1026.94,-286.8 995.06,-286.8 972.51,-276.26 972.51,-261.34 995.06,-250.8 1026.94,-250.8 1049.49,-261.34" style=""/>
<text text-anchor="middle" x="1011" y="-265.2" font-family="Times,serif" font-size="12.00" style="">bsp_can</text>
</g>
<!-- node4&#45;&gt;node3 -->
<g id="edge18" class="edge" data-name="node4-&gt;node3">

<path fill="none" stroke="black" stroke-dasharray="1,5" d="M1049.72,-260.96C1076.44,-254.01 1110.1,-240.3 1127,-213.8 1138.76,-195.35 1136.07,-88 1122,-65 1099.95,-28.95 977.67,-20.82 906.13,-19.2" style=""/>
<polygon fill="black" stroke="black" points="906.26,-15.7 896.19,-19.01 906.13,-22.7 906.26,-15.7" style=""/>
</g>
<!-- node5 -->
<g id="node14" class="node" pointer-events="visible" data-name="node5">

<polygon fill="none" stroke="black" points="898.74,-180.34 898.74,-195.26 877.22,-205.8 846.78,-205.8 825.26,-195.26 825.26,-180.34 846.78,-169.8 877.22,-169.8 898.74,-180.34" style=""/>
<text text-anchor="middle" x="862" y="-184.2" font-family="Times,serif" font-size="12.00" style="">bsp_led</text>
</g>
<!-- node4&#45;&gt;node5 -->
<g id="edge17" class="edge" data-name="node4-&gt;node5">

<path fill="none" stroke="black" d="M986.06,-254.58C961.38,-241.49 923.41,-221.36 895.98,-206.82" style=""/>
<polygon fill="black" stroke="black" points="897.84,-203.84 887.37,-202.25 894.57,-210.03 897.84,-203.84" style=""/>
</g>
<!-- node5&#45;&gt;node1 -->
<g id="edge15" class="edge" data-name="node5-&gt;node1">

<path fill="none" stroke="black" d="M886.51,-173.82C916.41,-157.99 967.28,-131.04 1002.44,-112.42" style=""/>
<polygon fill="black" stroke="black" points="1003.81,-115.65 1011.01,-107.88 1000.54,-109.47 1003.81,-115.65" style=""/>
</g>
<!-- node5&#45;&gt;node3 -->
<g id="edge16" class="edge" data-name="node5-&gt;node3">

<path fill="none" stroke="black" stroke-dasharray="1,5" d="M842.77,-171.23C826.8,-156.96 805.28,-134.27 796,-109 789.26,-90.64 787.49,-82.61 796,-65 801.07,-54.5 809.84,-45.66 819.04,-38.63" style=""/>
<polygon fill="black" stroke="black" points="820.82,-41.66 827.03,-33.07 816.82,-35.91 820.82,-41.66" style=""/>
</g>
<!-- node6 -->
<g id="node15" class="node" pointer-events="visible" data-name="node6">

<polygon fill="none" stroke="black" points="749.46,-83.54 749.46,-98.46 725.18,-109 690.82,-109 666.54,-98.46 666.54,-83.54 690.82,-73 725.18,-73 749.46,-83.54" style=""/>
<text text-anchor="middle" x="708" y="-87.4" font-family="Times,serif" font-size="12.00" style="">bsp_gpio</text>
</g>
<!-- node5&#45;&gt;node6 -->
<g id="edge14" class="edge" data-name="node5-&gt;node6">

<path fill="none" stroke="black" d="M831.61,-176.72C811.28,-169.25 784.44,-157.92 763,-143.8 751.76,-136.4 740.7,-126.61 731.47,-117.53" style=""/>
<polygon fill="black" stroke="black" points="734.14,-115.25 724.63,-110.57 729.14,-120.16 734.14,-115.25" style=""/>
</g>
<!-- node6&#45;&gt;node2 -->
<g id="edge12" class="edge" data-name="node6-&gt;node2">

<path fill="none" stroke="black" d="M709.24,-72.68C709.85,-66.72 710.73,-60.03 712,-54 712.55,-51.37 713.22,-48.66 713.96,-45.96" style=""/>
<polygon fill="black" stroke="black" points="717.23,-47.24 716.75,-36.66 710.52,-45.23 717.23,-47.24" style=""/>
</g>
<!-- node6&#45;&gt;node3 -->
<g id="edge13" class="edge" data-name="node6-&gt;node3">

<path fill="none" stroke="black" stroke-dasharray="1,5" d="M735.12,-76.81C758.31,-65.53 791.9,-49.2 817.46,-36.77" style=""/>
<polygon fill="black" stroke="black" points="818.69,-40.06 826.16,-32.54 815.63,-33.77 818.69,-40.06" style=""/>
</g>
<!-- node7 -->
<g id="node16" class="node" pointer-events="visible" data-name="node7">

<polygon fill="none" stroke="black" points="878.74,-83.54 878.74,-98.46 857.22,-109 826.78,-109 805.26,-98.46 805.26,-83.54 826.78,-73 857.22,-73 878.74,-83.54" style=""/>
<text text-anchor="middle" x="842" y="-87.4" font-family="Times,serif" font-size="12.00" style="">bsp_i2c</text>
</g>
<!-- node7&#45;&gt;node2 -->
<g id="edge19" class="edge" data-name="node7-&gt;node2">

<path fill="none" stroke="black" d="M819.06,-76.31C800.8,-65.42 775.04,-50.05 754.8,-37.97" style=""/>
<polygon fill="black" stroke="black" points="756.75,-35.06 746.37,-32.94 753.16,-41.07 756.75,-35.06" style=""/>
</g>
<!-- node7&#45;&gt;node3 -->
<g id="edge20" class="edge" data-name="node7-&gt;node3">

<path fill="none" stroke="black" stroke-dasharray="1,5" d="M844.9,-72.81C846.2,-65.14 847.76,-55.89 849.23,-47.24" style=""/>
<polygon fill="black" stroke="black" points="852.65,-47.96 850.87,-37.52 845.75,-46.8 852.65,-47.96" style=""/>
</g>
<!-- node8 -->
<g id="node17" class="node" pointer-events="visible" data-name="node8">

<polygon fill="none" stroke="black" points="648.15,-83.54 648.15,-98.46 622.87,-109 587.13,-109 561.85,-98.46 561.85,-83.54 587.13,-73 622.87,-73 648.15,-83.54" style=""/>
<text text-anchor="middle" x="605" y="-87.4" font-family="Times,serif" font-size="12.00" style="">bsp_pwm</text>
</g>
<!-- node8&#45;&gt;node2 -->
<g id="edge21" class="edge" data-name="node8-&gt;node2">

<path fill="none" stroke="black" d="M629.45,-75.29C647.5,-64.43 672.21,-49.56 691.7,-37.83" style=""/>
<polygon fill="black" stroke="black" points="693.3,-40.96 700.06,-32.8 689.69,-34.96 693.3,-40.96" style=""/>
</g>
<!-- node8&#45;&gt;node3 -->
<g id="edge22" class="edge" data-name="node8-&gt;node3">

<path fill="none" stroke="black" stroke-dasharray="1,5" d="M631.19,-76.16C639.58,-72.13 649.03,-68.01 658,-65 717.41,-45.05 735.22,-51.27 796,-36 800.58,-34.85 805.34,-33.58 810.08,-32.26" style=""/>
<polygon fill="black" stroke="black" points="810.88,-35.68 819.54,-29.57 808.96,-28.94 810.88,-35.68" style=""/>
</g>
<!-- node9 -->
<g id="node18" class="node" pointer-events="visible" data-name="node9">

<polygon fill="none" stroke="black" points="969.33,-83.54 969.33,-98.46 948.05,-109 917.95,-109 896.67,-98.46 896.67,-83.54 917.95,-73 948.05,-73 969.33,-83.54" style=""/>
<text text-anchor="middle" x="933" y="-87.4" font-family="Times,serif" font-size="12.00" style="">bsp_spi</text>
</g>
<!-- node9&#45;&gt;node2 -->
<g id="edge23" class="edge" data-name="node9-&gt;node2">

<path fill="none" stroke="black" d="M910.62,-76.21C903.56,-72.23 895.61,-68.12 888,-65 852.07,-50.25 809.86,-38.58 777.12,-30.68" style=""/>
<polygon fill="black" stroke="black" points="777.97,-27.29 767.44,-28.4 776.37,-34.1 777.97,-27.29" style=""/>
</g>
<!-- node9&#45;&gt;node3 -->
<g id="edge24" class="edge" data-name="node9-&gt;node3">

<path fill="none" stroke="black" stroke-dasharray="1,5" d="M915.07,-73.89C904.92,-64.76 892.01,-53.16 880.69,-42.98" style=""/>
<polygon fill="black" stroke="black" points="883.31,-40.63 873.53,-36.55 878.63,-45.84 883.31,-40.63" style=""/>
</g>
</g>
</svg>