<?xml version="1.0" standalone="no"?>
<svg xmlns="http://www.w3.org/2000/svg" xmlns:xlink="http://www.w3.org/1999/xlink" width="1283pt" height="336pt" viewBox="0.00 0.00 1283.48 335.60">
<g id="graph0" class="graph" transform="translate(4,331.6000061035156) scale(1)" data-name="bsp_lib">

<polygon fill="white" stroke="none" points="-4,4 -4,-331.6 1279.48,-331.6 1279.48,4 -4,4" style=""/>
<g id="clust1" class="cluster" data-name="clusterLegend">

<polygon fill="none" stroke="black" points="8,-65 8,-319.6 554,-319.6 554,-65 8,-65" style=""/>
<text text-anchor="middle" x="281" y="-303" font-family="Times,serif" font-size="14.00" style="">Legend</text>
</g>
<!-- legendNode0 -->
<g id="node1" class="node" pointer-events="visible" data-name="legendNode0">

<polygon fill="none" stroke="black" points="286.37,-250.85 289.27,-250.95 292.14,-251.1 294.96,-251.29 297.73,-251.54 300.44,-251.83 303.07,-252.16 305.62,-252.55 308.07,-252.98 310.42,-253.45 312.66,-253.96 314.78,-254.51 316.76,-255.11 318.62,-255.74 320.34,-256.41 321.91,-257.11 323.33,-257.84 324.61,-258.6 325.73,-259.39 326.7,-260.21 327.51,-261.05 328.17,-261.91 328.67,-262.79 329.02,-263.69 329.22,-264.6 329.28,-265.52 329.19,-266.45 328.96,-267.39 328.59,-268.33 328.1,-269.27 327.48,-270.21 326.75,-271.15 325.9,-272.08 324.94,-273 323.89,-273.91 322.74,-274.81 321.5,-275.69 320.19,-276.55 318.79,-277.39 317.33,-278.21 315.81,-279 314.23,-279.76 312.6,-280.49 310.93,-281.19 309.21,-281.86 307.46,-282.49 305.67,-283.09 303.86,-283.64 302.03,-284.15 300.17,-284.62 298.3,-285.05 296.41,-285.44 294.51,-285.77 292.6,-286.06 290.68,-286.31 288.76,-286.5 286.83,-286.65 284.9,-286.75 282.97,-286.8 281.03,-286.8 279.1,-286.75 277.17,-286.65 275.24,-286.5 273.32,-286.31 271.4,-286.06 269.49,-285.77 267.59,-285.44 265.7,-285.05 263.83,-284.62 261.97,-284.15 260.14,-283.64 258.33,-283.09 256.54,-282.49 254.79,-281.86 253.07,-281.19 251.4,-280.49 249.77,-279.76 248.19,-279 246.67,-278.21 245.21,-277.39 243.81,-276.55 242.5,-275.69 241.26,-274.81 240.11,-273.91 239.06,-273 238.1,-272.08 237.25,-271.15 236.52,-270.21 235.9,-269.27 235.41,-268.33 235.04,-267.39 234.81,-266.45 234.72,-265.52 234.78,-264.6 234.98,-263.69 235.33,-262.79 235.83,-261.91 236.49,-261.05 237.3,-260.21 238.27,-259.39 239.39,-258.6 240.67,-257.84 242.09,-257.11 243.66,-256.41 245.38,-255.74 247.24,-255.11 249.22,-254.51 251.34,-253.96 253.58,-253.45 255.93,-252.98 258.38,-252.55 260.93,-252.16 263.56,-251.83 266.27,-251.54 269.04,-251.29 271.86,-251.1 274.73,-250.95 277.63,-250.85 280.54,-250.8 283.46,-250.8 286.37,-250.85" style=""/>
<text text-anchor="middle" x="282" y="-265.2" font-family="Times,serif" font-size="12.00" style="">Executable</text>
</g>
<!-- legendNode1 -->
<g id="node2" class="node" pointer-events="visible" data-name="legendNode1">

<polygon fill="none" stroke="black" points="397.81,-180.34 397.81,-195.26 364.53,-205.8 317.47,-205.8 284.19,-195.26 284.19,-180.34 317.47,-169.8 364.53,-169.8 397.81,-180.34" style=""/>
<text text-anchor="middle" x="341" y="-184.2" font-family="Times,serif" font-size="12.00" style="">Static Library</text>
</g>
<!-- legendNode0&#45;&gt;legendNode1 -->
<g id="edge1" class="edge" data-name="legendNode0-&gt;legendNode1">

<path fill="none" stroke="black" d="M294.51,-251.05C302.31,-240.61 312.5,-226.96 321.35,-215.1" style=""/>
<polygon fill="black" stroke="black" points="324.01,-217.4 327.19,-207.29 318.4,-213.21 324.01,-217.4" style=""/>
</g>
<!-- legendNode2 -->
<g id="node3" class="node" pointer-events="visible" data-name="legendNode2">

<polygon fill="none" stroke="black" points="542.09,-180.34 542.09,-195.26 506.3,-205.8 455.7,-205.8 419.91,-195.26 419.91,-180.34 455.7,-169.8 506.3,-169.8 542.09,-180.34" style=""/>
<polygon fill="none" stroke="black" points="546.09,-177.35 546.09,-198.25 506.88,-209.8 455.12,-209.8 415.91,-198.25 415.91,-177.35 455.12,-165.8 506.88,-165.8 546.09,-177.35" style=""/>
<text text-anchor="middle" x="481" y="-184.2" font-family="Times,serif" font-size="12.00" style="">Shared Library</text>
</g>
<!-- legendNode0&#45;&gt;legendNode2 -->
<g id="edge2" class="edge" data-name="legendNode0-&gt;legendNode2">

<path fill="none" stroke="black" d="M315.76,-254.4C346.74,-242.1 393.12,-223.69 428.87,-209.5" style=""/>
<polygon fill="black" stroke="black" points="429.7,-212.93 437.71,-205.99 427.12,-206.42 429.7,-212.93" style=""/>
</g>
<!-- legendNode3 -->
<g id="node4" class="node" pointer-events="visible" data-name="legendNode3">

<polygon fill="none" stroke="black" points="151.66,-180.34 151.66,-195.26 114.37,-205.8 61.63,-205.8 24.34,-195.26 24.34,-180.34 61.63,-169.8 114.37,-169.8 151.66,-180.34" style=""/>
<polygon fill="none" stroke="black" points="155.65,-177.32 155.65,-198.28 114.92,-209.8 61.08,-209.8 20.35,-198.28 20.35,-177.32 61.08,-165.8 114.92,-165.8 155.65,-177.32" style=""/>
<polygon fill="none" stroke="black" points="159.64,-174.29 159.64,-201.31 115.47,-213.8 60.53,-213.8 16.36,-201.31 16.36,-174.29 60.53,-161.8 115.47,-161.8 159.64,-174.29" style=""/>
<text text-anchor="middle" x="88" y="-184.2" font-family="Times,serif" font-size="12.00" style="">Module Library</text>
</g>
<!-- legendNode0&#45;&gt;legendNode3 -->
<!-- legendNode7 -->
<g id="node8" class="node" pointer-events="visible" data-name="legendNode7">

<polygon fill="none" stroke="black" points="265.65,-205.8 178.35,-205.8 178.35,-169.8 265.65,-169.8 265.65,-205.8" style=""/>
<text text-anchor="middle" x="222" y="-184.2" font-family="Times,serif" font-size="12.00" style="">Custom Target</text>
</g>
<!-- legendNode0&#45;&gt;legendNode7 -->
<!-- legendNode4 -->
<g id="node5" class="node" pointer-events="visible" data-name="legendNode4">

<polygon fill="none" stroke="black" points="399.12,-96.56 322,-109 244.88,-96.56 274.34,-76.44 369.66,-76.44 399.12,-96.56" style=""/>
<text text-anchor="middle" x="322" y="-87.4" font-family="Times,serif" font-size="12.00" style="">Interface Library</text>
</g>
<!-- legendNode1&#45;&gt;legendNode4 -->
<g id="edge4" class="edge" data-name="legendNode1-&gt;legendNode4">

<path fill="none" stroke="black" stroke-dasharray="5,2" d="M337.52,-169.41C334.72,-155.48 330.75,-135.66 327.52,-119.57" style=""/>
<polygon fill="black" stroke="black" points="331.03,-119.24 325.63,-110.13 324.17,-120.62 331.03,-119.24" style=""/>
<text text-anchor="middle" x="357.87" y="-131.2" font-family="Times,serif" font-size="14.00" style="">Interface</text>
</g>
<!-- legendNode5 -->
<g id="node6" class="node" pointer-events="visible" data-name="legendNode5">

<polygon fill="none" stroke="black" points="545.28,-91 513.14,-109 448.86,-109 416.72,-91 448.86,-73 513.14,-73 545.28,-91" style=""/>
<text text-anchor="middle" x="481" y="-87.4" font-family="Times,serif" font-size="12.00" style="">Object Library</text>
</g>
<!-- legendNode2&#45;&gt;legendNode5 -->
<g id="edge5" class="edge" data-name="legendNode2-&gt;legendNode5">

<path fill="none" stroke="black" stroke-dasharray="1,5" d="M481,-165.76C481,-152.55 481,-135.33 481,-120.86" style=""/>
<polygon fill="black" stroke="black" points="484.5,-121 481,-111 477.5,-121 484.5,-121" style=""/>
<text text-anchor="middle" x="500.83" y="-131.2" font-family="Times,serif" font-size="14.00" style="">Private</text>
</g>
<!-- legendNode6 -->
<g id="node7" class="node" pointer-events="visible" data-name="legendNode6">

<polygon fill="none" stroke="black" points="161.56,-86.99 147.19,-102.22 89,-109 30.81,-102.22 16.44,-86.99 56.71,-74.78 121.29,-74.78 161.56,-86.99" style=""/>
<text text-anchor="middle" x="89" y="-87.4" font-family="Times,serif" font-size="12.00" style="">Unknown Library</text>
</g>
<!-- legendNode3&#45;&gt;legendNode6 -->
<g id="edge6" class="edge" data-name="legendNode3-&gt;legendNode6">

<path fill="none" stroke="black" d="M88.27,-161.4C88.4,-148.8 88.56,-133.54 88.7,-120.54" style=""/>
<polygon fill="black" stroke="black" points="92.19,-120.93 88.8,-110.89 85.2,-120.85 92.19,-120.93" style=""/>
</g>
<!-- node0 -->
<g id="node9" class="node" pointer-events="visible" data-name="node0">

<polygon fill="none" stroke="black" points="691.49,-180.34 691.49,-195.26 668.94,-205.8 637.06,-205.8 614.51,-195.26 614.51,-180.34 637.06,-169.8 668.94,-169.8 691.49,-180.34" style=""/>
<text text-anchor="middle" x="653" y="-184.2" font-family="Times,serif" font-size="12.00" style="">bsp_adc</text>
</g>
<!-- node1 -->
<g id="node10" class="node" pointer-events="visible" data-name="node1">

<polygon fill="none" stroke="black" points="903.42,-83.54 903.42,-98.46 872.13,-109 827.87,-109 796.58,-98.46 796.58,-83.54 827.87,-73 872.13,-73 903.42,-83.54" style=""/>
<text text-anchor="middle" x="850" y="-87.4" font-family="Times,serif" font-size="12.00" style="">bsp_swtimer</text>
</g>
<!-- node0&#45;&gt;node1 -->
<g id="edge10" class="edge" data-name="node0-&gt;node1">

<path fill="none" stroke="black" d="M679.16,-174.21C712.5,-158.17 770.48,-130.27 809.54,-111.47" style=""/>
<polygon fill="black" stroke="black" points="810.67,-114.81 818.16,-107.32 807.63,-108.5 810.67,-114.81" style=""/>
</g>
<!-- node3 -->
<g id="node12" class="node" pointer-events="visible" data-name="node3">

<polygon fill="none" stroke="black" points="890.19,-10.54 890.19,-25.46 866.65,-36 833.35,-36 809.81,-25.46 809.81,-10.54 833.35,0 866.65,0 890.19,-10.54" style=""/>
<text text-anchor="middle" x="850" y="-14.4" font-family="Times,serif" font-size="12.00" style="">cpb::v02</text>
</g>
<!-- node0&#45;&gt;node3 -->
<g id="edge11" class="edge" data-name="node0-&gt;node3">

<path fill="none" stroke="black" stroke-dasharray="1,5" d="M650.96,-169.69C648.88,-144.37 648.6,-96.54 671,-65 685.72,-44.28 750.78,-31.58 798.23,-24.92" style=""/>
<polygon fill="black" stroke="black" points="798.63,-28.4 808.07,-23.6 797.7,-21.46 798.63,-28.4" style=""/>
</g>
<!-- node2 -->
<g id="node11" class="node" pointer-events="visible" data-name="node2">

<polygon fill="none" stroke="black" points="1038.87,-23.56 975,-36 911.13,-23.56 935.53,-3.44 1014.47,-3.44 1038.87,-23.56" style=""/>
<text text-anchor="middle" x="975" y="-14.4" font-family="Times,serif" font-size="12.00" style="">bsp_common</text>
</g>
<!-- node1&#45;&gt;node2 -->
<g id="edge8" class="edge" data-name="node1-&gt;node2">

<path fill="none" stroke="black" d="M877.43,-74.42C896.53,-63.57 922.08,-49.06 942.24,-37.61" style=""/>
<polygon fill="black" stroke="black" points="943.95,-40.66 950.92,-32.68 940.49,-34.58 943.95,-40.66" style=""/>
</g>
<!-- node1&#45;&gt;node3 -->
<g id="edge9" class="edge" data-name="node1-&gt;node3">

<path fill="none" stroke="black" stroke-dasharray="1,5" d="M850,-72.81C850,-65.23 850,-56.1 850,-47.54" style=""/>
<polygon fill="black" stroke="black" points="853.5,-47.54 850,-37.54 846.5,-47.54 853.5,-47.54" style=""/>
</g>
<!-- node4 -->
<g id="node13" class="node" pointer-events="visible" data-name="node4">

<polygon fill="none" stroke="black" points="638.49,-261.34 638.49,-276.26 615.94,-286.8 584.06,-286.8 561.51,-276.26 561.51,-261.34 584.06,-250.8 615.94,-250.8 638.49,-261.34" style=""/>
<text text-anchor="middle" x="600" y="-265.2" font-family="Times,serif" font-size="12.00" style="">bsp_can</text>
</g>
<!-- node4&#45;&gt;node3 -->
<g id="edge18" class="edge" data-name="node4-&gt;node3">

<path fill="none" stroke="black" stroke-dasharray="1,5" d="M598.51,-250.31C596.22,-210.84 596.69,-114.44 650,-65 671.25,-45.29 746.27,-32.05 798.13,-25.02" style=""/>
<polygon fill="black" stroke="black" points="798.51,-28.5 807.97,-23.73 797.6,-21.56 798.51,-28.5" style=""/>
</g>
<!-- node5 -->
<g id="node14" class="node" pointer-events="visible" data-name="node5">

<polygon fill="none" stroke="black" points="833.74,-180.34 833.74,-195.26 812.22,-205.8 781.78,-205.8 760.26,-195.26 760.26,-180.34 781.78,-169.8 812.22,-169.8 833.74,-180.34" style=""/>
<text text-anchor="middle" x="797" y="-184.2" font-family="Times,serif" font-size="12.00" style="">bsp_led</text>
</g>
<!-- node4&#45;&gt;node5 -->
<g id="edge17" class="edge" data-name="node4-&gt;node5">

<path fill="none" stroke="black" d="M628.65,-256.31C662.83,-242.6 720.15,-219.62 758.27,-204.33" style=""/>
<polygon fill="black" stroke="black" points="759.57,-207.58 767.55,-200.61 756.97,-201.08 759.57,-207.58" style=""/>
</g>
<!-- node5&#45;&gt;node1 -->
<g id="edge15" class="edge" data-name="node5-&gt;node1">

<path fill="none" stroke="black" d="M806.72,-169.41C814.57,-155.38 825.74,-135.39 834.77,-119.24" style=""/>
<polygon fill="black" stroke="black" points="837.78,-121.04 839.6,-110.6 831.67,-117.62 837.78,-121.04" style=""/>
</g>
<!-- node5&#45;&gt;node3 -->
<g id="edge16" class="edge" data-name="node5-&gt;node3">

<path fill="none" stroke="black" stroke-dasharray="1,5" d="M770.5,-174.92C727.36,-153.94 649.92,-108.43 683,-65 697.01,-46.61 754.44,-33.72 798.07,-26.35" style=""/>
<polygon fill="black" stroke="black" points="798.59,-29.81 807.9,-24.75 797.47,-22.9 798.59,-29.81" style=""/>
</g>
<!-- node6 -->
<g id="node15" class="node" pointer-events="visible" data-name="node6">

<polygon fill="none" stroke="black" points="1275.46,-83.54 1275.46,-98.46 1251.18,-109 1216.82,-109 1192.54,-98.46 1192.54,-83.54 1216.82,-73 1251.18,-73 1275.46,-83.54" style=""/>
<text text-anchor="middle" x="1234" y="-87.4" font-family="Times,serif" font-size="12.00" style="">bsp_gpio</text>
</g>
<!-- node5&#45;&gt;node6 -->
<g id="edge14" class="edge" data-name="node5-&gt;node6">

<path fill="none" stroke="black" d="M834.07,-180.89C903.26,-169.51 1056.5,-142.7 1183,-109 1185.76,-108.26 1188.59,-107.46 1191.44,-106.62" style=""/>
<polygon fill="black" stroke="black" points="1192.4,-109.98 1200.91,-103.67 1190.32,-103.3 1192.4,-109.98" style=""/>
</g>
<!-- node6&#45;&gt;node2 -->
<g id="edge12" class="edge" data-name="node6-&gt;node2">

<path fill="none" stroke="black" d="M1217.05,-72.58C1209.41,-65.74 1199.9,-58.46 1190,-54 1145.06,-33.74 1090.14,-25.04 1047.06,-21.38" style=""/>
<polygon fill="black" stroke="black" points="1047.56,-17.9 1037.32,-20.63 1047.02,-24.88 1047.56,-17.9" style=""/>
</g>
<!-- node6&#45;&gt;node3 -->
<g id="edge13" class="edge" data-name="node6-&gt;node3">

<path fill="none" stroke="black" stroke-dasharray="1,5" d="M1209.54,-75.84C1201.35,-71.69 1192,-67.58 1183,-65 1062.31,-30.39 1024.81,-62.1 902,-36 898.47,-35.25 894.84,-34.35 891.22,-33.36" style=""/>
<polygon fill="black" stroke="black" points="892.53,-30.09 881.95,-30.6 890.54,-36.8 892.53,-30.09" style=""/>
</g>
<!-- node7 -->
<g id="node16" class="node" pointer-events="visible" data-name="node7">

<polygon fill="none" stroke="black" points="994.74,-83.54 994.74,-98.46 973.22,-109 942.78,-109 921.26,-98.46 921.26,-83.54 942.78,-73 973.22,-73 994.74,-83.54" style=""/>
<text text-anchor="middle" x="958" y="-87.4" font-family="Times,serif" font-size="12.00" style="">bsp_i2c</text>
</g>
<!-- node7&#45;&gt;node2 -->
<g id="edge19" class="edge" data-name="node7-&gt;node2">

<path fill="none" stroke="black" d="M962.12,-72.81C964,-64.94 966.28,-55.41 968.4,-46.57" style=""/>
<polygon fill="black" stroke="black" points="971.76,-47.55 970.69,-37.01 964.95,-45.92 971.76,-47.55" style=""/>
</g>
<!-- node7&#45;&gt;node3 -->
<g id="edge20" class="edge" data-name="node7-&gt;node3">

<path fill="none" stroke="black" stroke-dasharray="1,5" d="M936.4,-75.8C920.72,-65.49 899.24,-51.37 881.63,-39.79" style=""/>
<polygon fill="black" stroke="black" points="883.84,-37.06 873.57,-34.49 880,-42.91 883.84,-37.06" style=""/>
</g>
<!-- node8 -->
<g id="node17" class="node" pointer-events="visible" data-name="node8">

<polygon fill="none" stroke="black" points="778.15,-83.54 778.15,-98.46 752.87,-109 717.13,-109 691.85,-98.46 691.85,-83.54 717.13,-73 752.87,-73 778.15,-83.54" style=""/>
<text text-anchor="middle" x="735" y="-87.4" font-family="Times,serif" font-size="12.00" style="">bsp_pwm</text>
</g>
<!-- node8&#45;&gt;node2 -->
<g id="edge21" class="edge" data-name="node8-&gt;node2">

<path fill="none" stroke="black" d="M761.52,-76.22C769.85,-72.24 779.18,-68.13 788,-65 812.45,-56.32 875.99,-41.26 922.23,-30.74" style=""/>
<polygon fill="black" stroke="black" points="922.83,-34.2 931.81,-28.57 921.28,-27.37 922.83,-34.2" style=""/>
</g>
<!-- node8&#45;&gt;node3 -->
<g id="edge22" class="edge" data-name="node8-&gt;node3">

<path fill="none" stroke="black" stroke-dasharray="1,5" d="M759.11,-75.12C775.89,-64.75 798.48,-50.81 816.94,-39.41" style=""/>
<polygon fill="black" stroke="black" points="818.75,-42.41 825.42,-34.17 815.07,-36.45 818.75,-42.41" style=""/>
</g>
<!-- node9 -->
<g id="node18" class="node" pointer-events="visible" data-name="node9">

<polygon fill="none" stroke="black" points="1083.47,-83.54 1083.47,-98.46 1062.69,-109 1033.31,-109 1012.53,-98.46 1012.53,-83.54 1033.31,-73 1062.69,-73 1083.47,-83.54" style=""/>
<text text-anchor="middle" x="1048" y="-87.4" font-family="Times,serif" font-size="12.00" style="">bsp_rtc</text>
</g>
<!-- node9&#45;&gt;node2 -->
<g id="edge23" class="edge" data-name="node9-&gt;node2">

<path fill="none" stroke="black" d="M1035.99,-72.79C1031.32,-66.59 1025.71,-59.71 1020,-54 1014.95,-48.95 1009.17,-43.96 1003.47,-39.41" style=""/>
<polygon fill="black" stroke="black" points="1005.96,-36.91 995.9,-33.58 1001.69,-42.45 1005.96,-36.91" style=""/>
</g>
<!-- node9&#45;&gt;node3 -->
<g id="edge24" class="edge" data-name="node9-&gt;node3">

<path fill="none" stroke="black" stroke-dasharray="1,5" d="M1026.14,-76.21C1019.23,-72.23 1011.45,-68.12 1004,-65 960.53,-46.78 947.07,-49.77 902,-36 898.93,-35.06 895.77,-34.08 892.59,-33.07" style=""/>
<polygon fill="black" stroke="black" points="893.87,-29.81 883.28,-30.09 891.73,-36.47 893.87,-29.81" style=""/>
</g>
<!-- node10 -->
<g id="node19" class="node" pointer-events="visible" data-name="node10">

<polygon fill="none" stroke="black" points="1174.33,-83.54 1174.33,-98.46 1153.05,-109 1122.95,-109 1101.67,-98.46 1101.67,-83.54 1122.95,-73 1153.05,-73 1174.33,-83.54" style=""/>
<text text-anchor="middle" x="1138" y="-87.4" font-family="Times,serif" font-size="12.00" style="">bsp_spi</text>
</g>
<!-- node10&#45;&gt;node2 -->
<g id="edge25" class="edge" data-name="node10-&gt;node2">

<path fill="none" stroke="black" d="M1122.67,-72.69C1115.98,-66.03 1107.68,-58.86 1099,-54 1079.23,-42.93 1055.69,-35.14 1034.46,-29.77" style=""/>
<polygon fill="black" stroke="black" points="1035.28,-26.37 1024.74,-27.46 1033.66,-33.18 1035.28,-26.37" style=""/>
</g>
<!-- node10&#45;&gt;node3 -->
<g id="edge26" class="edge" data-name="node10-&gt;node3">

<path fill="none" stroke="black" stroke-dasharray="1,5" d="M1116.25,-76.17C1108.81,-71.99 1100.27,-67.78 1092,-65 1011.04,-37.75 985.1,-55.78 902,-36 898.64,-35.2 895.19,-34.29 891.74,-33.3" style=""/>
<polygon fill="black" stroke="black" points="892.87,-29.99 882.28,-30.44 890.84,-36.69 892.87,-29.99" style=""/>
</g>
</g>
</svg>