<?xml version="1.0" standalone="no"?>
<svg xmlns="http://www.w3.org/2000/svg" xmlns:xlink="http://www.w3.org/1999/xlink" width="910pt" height="279pt" viewBox="0.00 0.00 909.76 278.60">
<g id="graph0" class="graph" transform="translate(4,274.6000061035156) scale(1)" data-name="bsp_lib">

<polygon fill="white" stroke="none" points="-4,4 -4,-274.6 905.76,-274.6 905.76,4 -4,4" style=""/>
<g id="clust1" class="cluster" data-name="clusterLegend">

<polygon fill="none" stroke="black" points="8,-8 8,-262.6 554,-262.6 554,-8 8,-8" style=""/>
<text text-anchor="middle" x="281" y="-246" font-family="Times,serif" font-size="14.00" style="">Legend</text>
</g>
<!-- legendNode0 -->
<g id="node1" class="node" pointer-events="visible" data-name="legendNode0">

<polygon fill="none" stroke="black" points="253.37,-193.85 256.27,-193.95 259.14,-194.1 261.96,-194.29 264.73,-194.54 267.44,-194.83 270.07,-195.16 272.62,-195.55 275.07,-195.98 277.42,-196.45 279.66,-196.96 281.78,-197.51 283.76,-198.11 285.62,-198.74 287.34,-199.41 288.91,-200.11 290.33,-200.84 291.61,-201.6 292.73,-202.39 293.7,-203.21 294.51,-204.05 295.17,-204.91 295.67,-205.79 296.02,-206.69 296.22,-207.6 296.28,-208.52 296.19,-209.45 295.96,-210.39 295.59,-211.33 295.1,-212.27 294.48,-213.21 293.75,-214.15 292.9,-215.08 291.94,-216 290.89,-216.91 289.74,-217.81 288.5,-218.69 287.19,-219.55 285.79,-220.39 284.33,-221.21 282.81,-222 281.23,-222.76 279.6,-223.49 277.93,-224.19 276.21,-224.86 274.46,-225.49 272.67,-226.09 270.86,-226.64 269.03,-227.15 267.17,-227.62 265.3,-228.05 263.41,-228.44 261.51,-228.77 259.6,-229.06 257.68,-229.31 255.76,-229.5 253.83,-229.65 251.9,-229.75 249.97,-229.8 248.03,-229.8 246.1,-229.75 244.17,-229.65 242.24,-229.5 240.32,-229.31 238.4,-229.06 236.49,-228.77 234.59,-228.44 232.7,-228.05 230.83,-227.62 228.97,-227.15 227.14,-226.64 225.33,-226.09 223.54,-225.49 221.79,-224.86 220.07,-224.19 218.4,-223.49 216.77,-222.76 215.19,-222 213.67,-221.21 212.21,-220.39 210.81,-219.55 209.5,-218.69 208.26,-217.81 207.11,-216.91 206.06,-216 205.1,-215.08 204.25,-214.15 203.52,-213.21 202.9,-212.27 202.41,-211.33 202.04,-210.39 201.81,-209.45 201.72,-208.52 201.78,-207.6 201.98,-206.69 202.33,-205.79 202.83,-204.91 203.49,-204.05 204.3,-203.21 205.27,-202.39 206.39,-201.6 207.67,-200.84 209.09,-200.11 210.66,-199.41 212.38,-198.74 214.24,-198.11 216.22,-197.51 218.34,-196.96 220.58,-196.45 222.93,-195.98 225.38,-195.55 227.93,-195.16 230.56,-194.83 233.27,-194.54 236.04,-194.29 238.86,-194.1 241.73,-193.95 244.63,-193.85 247.54,-193.8 250.46,-193.8 253.37,-193.85" style=""/>
<text text-anchor="middle" x="249" y="-208.2" font-family="Times,serif" font-size="12.00" style="">Executable</text>
</g>
<!-- legendNode1 -->
<g id="node2" class="node" pointer-events="visible" data-name="legendNode1">

<polygon fill="none" stroke="black" points="235.81,-123.34 235.81,-138.26 202.53,-148.8 155.47,-148.8 122.19,-138.26 122.19,-123.34 155.47,-112.8 202.53,-112.8 235.81,-123.34" style=""/>
<text text-anchor="middle" x="179" y="-127.2" font-family="Times,serif" font-size="12.00" style="">Static Library</text>
</g>
<!-- legendNode0&#45;&gt;legendNode1 -->
<g id="edge1" class="edge" data-name="legendNode0-&gt;legendNode1">

<path fill="none" stroke="black" d="M234.15,-194.05C224.72,-183.4 212.33,-169.42 201.69,-157.4" style=""/>
<polygon fill="black" stroke="black" points="204.56,-155.37 195.31,-150.21 199.32,-160.01 204.56,-155.37" style=""/>
</g>
<!-- legendNode2 -->
<g id="node3" class="node" pointer-events="visible" data-name="legendNode2">

<polygon fill="none" stroke="black" points="380.09,-123.34 380.09,-138.26 344.3,-148.8 293.7,-148.8 257.91,-138.26 257.91,-123.34 293.7,-112.8 344.3,-112.8 380.09,-123.34" style=""/>
<polygon fill="none" stroke="black" points="384.09,-120.35 384.09,-141.25 344.88,-152.8 293.12,-152.8 253.91,-141.25 253.91,-120.35 293.12,-108.8 344.88,-108.8 384.09,-120.35" style=""/>
<text text-anchor="middle" x="319" y="-127.2" font-family="Times,serif" font-size="12.00" style="">Shared Library</text>
</g>
<!-- legendNode0&#45;&gt;legendNode2 -->
<g id="edge2" class="edge" data-name="legendNode0-&gt;legendNode2">

<path fill="none" stroke="black" d="M263.85,-194.05C272.21,-184.61 282.89,-172.55 292.63,-161.56" style=""/>
<polygon fill="black" stroke="black" points="295.16,-163.99 299.17,-154.18 289.92,-159.34 295.16,-163.99" style=""/>
</g>
<!-- legendNode3 -->
<g id="node4" class="node" pointer-events="visible" data-name="legendNode3">

<polygon fill="none" stroke="black" points="537.66,-123.34 537.66,-138.26 500.37,-148.8 447.63,-148.8 410.34,-138.26 410.34,-123.34 447.63,-112.8 500.37,-112.8 537.66,-123.34" style=""/>
<polygon fill="none" stroke="black" points="541.65,-120.32 541.65,-141.28 500.92,-152.8 447.08,-152.8 406.35,-141.28 406.35,-120.32 447.08,-108.8 500.92,-108.8 541.65,-120.32" style=""/>
<polygon fill="none" stroke="black" points="545.64,-117.29 545.64,-144.31 501.47,-156.8 446.53,-156.8 402.36,-144.31 402.36,-117.29 446.53,-104.8 501.47,-104.8 545.64,-117.29" style=""/>
<text text-anchor="middle" x="474" y="-127.2" font-family="Times,serif" font-size="12.00" style="">Module Library</text>
</g>
<!-- legendNode0&#45;&gt;legendNode3 -->
<!-- legendNode7 -->
<g id="node8" class="node" pointer-events="visible" data-name="legendNode7">

<polygon fill="none" stroke="black" points="103.65,-148.8 16.35,-148.8 16.35,-112.8 103.65,-112.8 103.65,-148.8" style=""/>
<text text-anchor="middle" x="60" y="-127.2" font-family="Times,serif" font-size="12.00" style="">Custom Target</text>
</g>
<!-- legendNode0&#45;&gt;legendNode7 -->
<!-- legendNode4 -->
<g id="node5" class="node" pointer-events="visible" data-name="legendNode4">

<polygon fill="none" stroke="black" points="236.12,-39.56 159,-52 81.88,-39.56 111.34,-19.44 206.66,-19.44 236.12,-39.56" style=""/>
<text text-anchor="middle" x="159" y="-30.4" font-family="Times,serif" font-size="12.00" style="">Interface Library</text>
</g>
<!-- legendNode1&#45;&gt;legendNode4 -->
<g id="edge4" class="edge" data-name="legendNode1-&gt;legendNode4">

<path fill="none" stroke="black" stroke-dasharray="5,2" d="M175.33,-112.41C172.39,-98.48 168.21,-78.66 164.82,-62.57" style=""/>
<polygon fill="black" stroke="black" points="168.31,-62.18 162.82,-53.12 161.46,-63.63 168.31,-62.18" style=""/>
<text text-anchor="middle" x="194.87" y="-74.2" font-family="Times,serif" font-size="14.00" style="">Interface</text>
</g>
<!-- legendNode5 -->
<g id="node6" class="node" pointer-events="visible" data-name="legendNode5">

<polygon fill="none" stroke="black" points="382.28,-34 350.14,-52 285.86,-52 253.72,-34 285.86,-16 350.14,-16 382.28,-34" style=""/>
<text text-anchor="middle" x="318" y="-30.4" font-family="Times,serif" font-size="12.00" style="">Object Library</text>
</g>
<!-- legendNode2&#45;&gt;legendNode5 -->
<g id="edge5" class="edge" data-name="legendNode2-&gt;legendNode5">

<path fill="none" stroke="black" stroke-dasharray="1,5" d="M318.78,-108.76C318.64,-95.55 318.46,-78.33 318.3,-63.86" style=""/>
<polygon fill="black" stroke="black" points="321.81,-63.96 318.2,-54 314.81,-64.04 321.81,-63.96" style=""/>
<text text-anchor="middle" x="338.83" y="-74.2" font-family="Times,serif" font-size="14.00" style="">Private</text>
</g>
<!-- legendNode6 -->
<g id="node7" class="node" pointer-events="visible" data-name="legendNode6">

<polygon fill="none" stroke="black" points="545.56,-29.99 531.19,-45.22 473,-52 414.81,-45.22 400.44,-29.99 440.71,-17.78 505.29,-17.78 545.56,-29.99" style=""/>
<text text-anchor="middle" x="473" y="-30.4" font-family="Times,serif" font-size="12.00" style="">Unknown Library</text>
</g>
<!-- legendNode3&#45;&gt;legendNode6 -->
<g id="edge6" class="edge" data-name="legendNode3-&gt;legendNode6">

<path fill="none" stroke="black" d="M473.73,-104.4C473.6,-91.8 473.44,-76.54 473.3,-63.54" style=""/>
<polygon fill="black" stroke="black" points="476.8,-63.85 473.2,-53.89 469.81,-63.93 476.8,-63.85" style=""/>
</g>
<!-- node0 -->
<g id="node9" class="node" pointer-events="visible" data-name="node0">

<polygon fill="none" stroke="black" points="688.49,-204.34 688.49,-219.26 665.94,-229.8 634.06,-229.8 611.51,-219.26 611.51,-204.34 634.06,-193.8 665.94,-193.8 688.49,-204.34" style=""/>
<text text-anchor="middle" x="650" y="-208.2" font-family="Times,serif" font-size="12.00" style="">bsp_adc</text>
</g>
<!-- node1 -->
<g id="node10" class="node" pointer-events="visible" data-name="node1">

<polygon fill="none" stroke="black" points="895.87,-39.56 832,-52 768.13,-39.56 792.53,-19.44 871.47,-19.44 895.87,-39.56" style=""/>
<text text-anchor="middle" x="832" y="-30.4" font-family="Times,serif" font-size="12.00" style="">bsp_common</text>
</g>
<!-- node0&#45;&gt;node1 -->
<g id="edge8" class="edge" data-name="node0-&gt;node1">

<path fill="none" stroke="black" d="M648.39,-193.37C647.24,-170.54 648.64,-130.41 669,-104.8 694.44,-72.81 737.33,-55.23 772.73,-45.71" style=""/>
<polygon fill="black" stroke="black" points="773.14,-49.22 781.98,-43.38 771.43,-42.43 773.14,-49.22" style=""/>
</g>
<!-- node2 -->
<g id="node11" class="node" pointer-events="visible" data-name="node2">

<polygon fill="none" stroke="black" points="784.42,-123.34 784.42,-138.26 753.13,-148.8 708.87,-148.8 677.58,-138.26 677.58,-123.34 708.87,-112.8 753.13,-112.8 784.42,-123.34" style=""/>
<text text-anchor="middle" x="731" y="-127.2" font-family="Times,serif" font-size="12.00" style="">bsp_swtimer</text>
</g>
<!-- node0&#45;&gt;node2 -->
<g id="edge11" class="edge" data-name="node0-&gt;node2">

<path fill="none" stroke="black" d="M667.18,-194.05C678.2,-183.3 692.71,-169.15 705.11,-157.05" style=""/>
<polygon fill="black" stroke="black" points="707.49,-159.62 712.2,-150.13 702.6,-154.61 707.49,-159.62" style=""/>
</g>
<!-- node3 -->
<g id="node12" class="node" pointer-events="visible" data-name="node3">

<polygon fill="none" stroke="black" points="727.19,-26.54 727.19,-41.46 703.65,-52 670.35,-52 646.81,-41.46 646.81,-26.54 670.35,-16 703.65,-16 727.19,-26.54" style=""/>
<text text-anchor="middle" x="687" y="-30.4" font-family="Times,serif" font-size="12.00" style="">cpb::v02</text>
</g>
<!-- node0&#45;&gt;node3 -->
<g id="edge12" class="edge" data-name="node0-&gt;node3">

<path fill="none" stroke="black" stroke-dasharray="1,5" d="M629.21,-195.84C617.64,-186.17 604.33,-172.49 598,-156.8 583.57,-121.02 576.28,-101.88 598,-70 606.8,-57.08 621.17,-48.93 635.81,-43.79" style=""/>
<polygon fill="black" stroke="black" points="636.46,-47.25 645,-40.99 634.42,-40.56 636.46,-47.25" style=""/>
</g>
<!-- node2&#45;&gt;node1 -->
<g id="edge9" class="edge" data-name="node2-&gt;node1">

<path fill="none" stroke="black" d="M749.52,-112.41C766.07,-96.89 790.38,-74.06 808.33,-57.22" style=""/>
<polygon fill="black" stroke="black" points="810.57,-59.92 815.46,-50.52 805.78,-54.81 810.57,-59.92" style=""/>
</g>
<!-- node2&#45;&gt;node3 -->
<g id="edge10" class="edge" data-name="node2-&gt;node3">

<path fill="none" stroke="black" stroke-dasharray="1,5" d="M722.93,-112.41C716.48,-98.51 707.31,-78.77 699.86,-62.7" style=""/>
<polygon fill="black" stroke="black" points="703.04,-61.25 695.66,-53.65 696.69,-64.19 703.04,-61.25" style=""/>
</g>
<!-- node4 -->
<g id="node13" class="node" pointer-events="visible" data-name="node4">

<polygon fill="none" stroke="black" points="885.46,-123.34 885.46,-138.26 861.18,-148.8 826.82,-148.8 802.54,-138.26 802.54,-123.34 826.82,-112.8 861.18,-112.8 885.46,-123.34" style=""/>
<text text-anchor="middle" x="844" y="-127.2" font-family="Times,serif" font-size="12.00" style="">bsp_gpio</text>
</g>
<!-- node4&#45;&gt;node1 -->
<g id="edge13" class="edge" data-name="node4-&gt;node1">

<path fill="none" stroke="black" d="M841.8,-112.41C840.06,-98.7 837.61,-79.29 835.59,-63.33" style=""/>
<polygon fill="black" stroke="black" points="839.06,-62.94 834.34,-53.46 832.12,-63.82 839.06,-62.94" style=""/>
</g>
<!-- node4&#45;&gt;node3 -->
<g id="edge14" class="edge" data-name="node4-&gt;node3">

<path fill="none" stroke="black" stroke-dasharray="1,5" d="M820.16,-115.4C793.49,-99.3 750.12,-73.11 720.16,-55.02" style=""/>
<polygon fill="black" stroke="black" points="722.22,-52.18 711.85,-50.01 718.6,-58.17 722.22,-52.18" style=""/>
</g>
<!-- node5 -->
<g id="node14" class="node" pointer-events="visible" data-name="node5">

<polygon fill="none" stroke="black" points="829.74,-204.34 829.74,-219.26 808.22,-229.8 777.78,-229.8 756.26,-219.26 756.26,-204.34 777.78,-193.8 808.22,-193.8 829.74,-204.34" style=""/>
<text text-anchor="middle" x="793" y="-208.2" font-family="Times,serif" font-size="12.00" style="">bsp_led</text>
</g>
<!-- node5&#45;&gt;node1 -->
<g id="edge15" class="edge" data-name="node5-&gt;node1">

<path fill="none" stroke="black" d="M826.61,-202.62C850,-194.98 879.49,-181.02 894,-156.8 905.88,-136.98 902.21,-126.4 894,-104.8 886.82,-85.91 871.93,-68.86 858.54,-56.34" style=""/>
<polygon fill="black" stroke="black" points="860.98,-53.83 851.18,-49.8 856.33,-59.06 860.98,-53.83" style=""/>
</g>
<!-- node5&#45;&gt;node2 -->
<g id="edge17" class="edge" data-name="node5-&gt;node2">

<path fill="none" stroke="black" stroke-dasharray="1,5" d="M779.55,-193.66C771.4,-183.27 760.84,-169.82 751.64,-158.11" style=""/>
<polygon fill="black" stroke="black" points="754.5,-156.08 745.58,-150.37 749,-160.4 754.5,-156.08" style=""/>
</g>
<!-- node5&#45;&gt;node3 -->
<g id="edge18" class="edge" data-name="node5-&gt;node3">

<path fill="none" stroke="black" stroke-dasharray="1,5" d="M755.88,-205.66C726.77,-199.46 688.11,-185.97 669,-156.8 650.55,-128.64 661.61,-89.03 672.86,-62.71" style=""/>
<polygon fill="black" stroke="black" points="676.01,-64.25 676.98,-53.7 669.64,-61.34 676.01,-64.25" style=""/>
</g>
<!-- node5&#45;&gt;node4 -->
<g id="edge16" class="edge" data-name="node5-&gt;node4">

<path fill="none" stroke="black" stroke-dasharray="1,5" d="M804.07,-193.66C810.64,-183.48 819.11,-170.35 826.57,-158.8" style=""/>
<polygon fill="black" stroke="black" points="829.48,-160.75 831.96,-150.45 823.59,-156.96 829.48,-160.75" style=""/>
</g>
</g>
</svg>