<?xml version="1.0" standalone="no"?>
<svg xmlns="http://www.w3.org/2000/svg" xmlns:xlink="http://www.w3.org/1999/xlink" width="1341pt" height="409pt" viewBox="0.00 0.00 1340.85 408.60">
<g id="graph0" class="graph" transform="translate(4,404.6000061035156) scale(1)" data-name="bsp_lib">

<polygon fill="white" stroke="none" points="-4,4 -4,-404.6 1336.85,-404.6 1336.85,4 -4,4" style=""/>
<g id="clust1" class="cluster" data-name="clusterLegend">

<polygon fill="none" stroke="black" points="8,-138 8,-392.6 554,-392.6 554,-138 8,-138" style=""/>
<text text-anchor="middle" x="281" y="-376" font-family="Times,serif" font-size="14.00" style="">Legend</text>
</g>
<!-- legendNode0 -->
<g id="node1" class="node" pointer-events="visible" data-name="legendNode0">

<polygon fill="none" stroke="black" points="295.37,-323.85 298.27,-323.95 301.14,-324.1 303.96,-324.29 306.73,-324.54 309.44,-324.83 312.07,-325.16 314.62,-325.55 317.07,-325.98 319.42,-326.45 321.66,-326.96 323.78,-327.51 325.76,-328.11 327.62,-328.74 329.34,-329.41 330.91,-330.11 332.33,-330.84 333.61,-331.6 334.73,-332.39 335.7,-333.21 336.51,-334.05 337.17,-334.91 337.67,-335.79 338.02,-336.69 338.22,-337.6 338.28,-338.52 338.19,-339.45 337.96,-340.39 337.59,-341.33 337.1,-342.27 336.48,-343.21 335.75,-344.15 334.9,-345.08 333.94,-346 332.89,-346.91 331.74,-347.81 330.5,-348.69 329.19,-349.55 327.79,-350.39 326.33,-351.21 324.81,-352 323.23,-352.76 321.6,-353.49 319.93,-354.19 318.21,-354.86 316.46,-355.49 314.67,-356.09 312.86,-356.64 311.03,-357.15 309.17,-357.62 307.3,-358.05 305.41,-358.44 303.51,-358.77 301.6,-359.06 299.68,-359.31 297.76,-359.5 295.83,-359.65 293.9,-359.75 291.97,-359.8 290.03,-359.8 288.1,-359.75 286.17,-359.65 284.24,-359.5 282.32,-359.31 280.4,-359.06 278.49,-358.77 276.59,-358.44 274.7,-358.05 272.83,-357.62 270.97,-357.15 269.14,-356.64 267.33,-356.09 265.54,-355.49 263.79,-354.86 262.07,-354.19 260.4,-353.49 258.77,-352.76 257.19,-352 255.67,-351.21 254.21,-350.39 252.81,-349.55 251.5,-348.69 250.26,-347.81 249.11,-346.91 248.06,-346 247.1,-345.08 246.25,-344.15 245.52,-343.21 244.9,-342.27 244.41,-341.33 244.04,-340.39 243.81,-339.45 243.72,-338.52 243.78,-337.6 243.98,-336.69 244.33,-335.79 244.83,-334.91 245.49,-334.05 246.3,-333.21 247.27,-332.39 248.39,-331.6 249.67,-330.84 251.09,-330.11 252.66,-329.41 254.38,-328.74 256.24,-328.11 258.22,-327.51 260.34,-326.96 262.58,-326.45 264.93,-325.98 267.38,-325.55 269.93,-325.16 272.56,-324.83 275.27,-324.54 278.04,-324.29 280.86,-324.1 283.73,-323.95 286.63,-323.85 289.54,-323.8 292.46,-323.8 295.37,-323.85" style=""/>
<text text-anchor="middle" x="291" y="-338.2" font-family="Times,serif" font-size="12.00" style="">Executable</text>
</g>
<!-- legendNode1 -->
<g id="node2" class="node" pointer-events="visible" data-name="legendNode1">

<polygon fill="none" stroke="black" points="129.81,-253.34 129.81,-268.26 96.53,-278.8 49.47,-278.8 16.19,-268.26 16.19,-253.34 49.47,-242.8 96.53,-242.8 129.81,-253.34" style=""/>
<text text-anchor="middle" x="73" y="-257.2" font-family="Times,serif" font-size="12.00" style="">Static Library</text>
</g>
<!-- legendNode0&#45;&gt;legendNode1 -->
<g id="edge1" class="edge" data-name="legendNode0-&gt;legendNode1">

<path fill="none" stroke="black" d="M254.68,-328.14C223.84,-317.32 178.44,-301.27 139,-286.8 132.51,-284.42 125.67,-281.87 118.96,-279.35" style=""/>
<polygon fill="black" stroke="black" points="120.58,-276.22 109.99,-275.96 118.11,-282.77 120.58,-276.22" style=""/>
</g>
<!-- legendNode2 -->
<g id="node3" class="node" pointer-events="visible" data-name="legendNode2">

<polygon fill="none" stroke="black" points="274.09,-253.34 274.09,-268.26 238.3,-278.8 187.7,-278.8 151.91,-268.26 151.91,-253.34 187.7,-242.8 238.3,-242.8 274.09,-253.34" style=""/>
<polygon fill="none" stroke="black" points="278.09,-250.35 278.09,-271.25 238.88,-282.8 187.12,-282.8 147.91,-271.25 147.91,-250.35 187.12,-238.8 238.88,-238.8 278.09,-250.35" style=""/>
<text text-anchor="middle" x="213" y="-257.2" font-family="Times,serif" font-size="12.00" style="">Shared Library</text>
</g>
<!-- legendNode0&#45;&gt;legendNode2 -->
<g id="edge2" class="edge" data-name="legendNode0-&gt;legendNode2">

<path fill="none" stroke="black" d="M274.84,-324.43C265.36,-314.83 253.1,-302.41 242,-291.17" style=""/>
<polygon fill="black" stroke="black" points="244.76,-288.98 235.24,-284.33 239.78,-293.9 244.76,-288.98" style=""/>
</g>
<!-- legendNode3 -->
<g id="node4" class="node" pointer-events="visible" data-name="legendNode3">

<polygon fill="none" stroke="black" points="431.66,-253.34 431.66,-268.26 394.37,-278.8 341.63,-278.8 304.34,-268.26 304.34,-253.34 341.63,-242.8 394.37,-242.8 431.66,-253.34" style=""/>
<polygon fill="none" stroke="black" points="435.65,-250.32 435.65,-271.28 394.92,-282.8 341.08,-282.8 300.35,-271.28 300.35,-250.32 341.08,-238.8 394.92,-238.8 435.65,-250.32" style=""/>
<polygon fill="none" stroke="black" points="439.64,-247.29 439.64,-274.31 395.47,-286.8 340.53,-286.8 296.36,-274.31 296.36,-247.29 340.53,-234.8 395.47,-234.8 439.64,-247.29" style=""/>
<text text-anchor="middle" x="368" y="-257.2" font-family="Times,serif" font-size="12.00" style="">Module Library</text>
</g>
<!-- legendNode0&#45;&gt;legendNode3 -->
<!-- legendNode7 -->
<g id="node8" class="node" pointer-events="visible" data-name="legendNode7">

<polygon fill="none" stroke="black" points="545.65,-278.8 458.35,-278.8 458.35,-242.8 545.65,-242.8 545.65,-278.8" style=""/>
<text text-anchor="middle" x="502" y="-257.2" font-family="Times,serif" font-size="12.00" style="">Custom Target</text>
</g>
<!-- legendNode0&#45;&gt;legendNode7 -->
<!-- legendNode4 -->
<g id="node5" class="node" pointer-events="visible" data-name="legendNode4">

<polygon fill="none" stroke="black" points="170.12,-169.56 93,-182 15.88,-169.56 45.34,-149.44 140.66,-149.44 170.12,-169.56" style=""/>
<text text-anchor="middle" x="93" y="-160.4" font-family="Times,serif" font-size="12.00" style="">Interface Library</text>
</g>
<!-- legendNode1&#45;&gt;legendNode4 -->
<g id="edge4" class="edge" data-name="legendNode1-&gt;legendNode4">

<path fill="none" stroke="black" stroke-dasharray="5,2" d="M76.67,-242.41C79.61,-228.48 83.79,-208.66 87.18,-192.57" style=""/>
<polygon fill="black" stroke="black" points="90.54,-193.63 89.18,-183.12 83.69,-192.18 90.54,-193.63" style=""/>
<text text-anchor="middle" x="110.87" y="-204.2" font-family="Times,serif" font-size="14.00" style="">Interface</text>
</g>
<!-- legendNode5 -->
<g id="node6" class="node" pointer-events="visible" data-name="legendNode5">

<polygon fill="none" stroke="black" points="316.28,-164 284.14,-182 219.86,-182 187.72,-164 219.86,-146 284.14,-146 316.28,-164" style=""/>
<text text-anchor="middle" x="252" y="-160.4" font-family="Times,serif" font-size="12.00" style="">Object Library</text>
</g>
<!-- legendNode2&#45;&gt;legendNode5 -->
<g id="edge5" class="edge" data-name="legendNode2-&gt;legendNode5">

<path fill="none" stroke="black" stroke-dasharray="1,5" d="M221.66,-238.76C227.2,-225.29 234.46,-207.64 240.48,-192.99" style=""/>
<polygon fill="black" stroke="black" points="243.66,-194.47 244.23,-183.89 237.19,-191.8 243.66,-194.47" style=""/>
<text text-anchor="middle" x="257.83" y="-204.2" font-family="Times,serif" font-size="14.00" style="">Private</text>
</g>
<!-- legendNode6 -->
<g id="node7" class="node" pointer-events="visible" data-name="legendNode6">

<polygon fill="none" stroke="black" points="479.56,-159.99 465.19,-175.22 407,-182 348.81,-175.22 334.44,-159.99 374.71,-147.78 439.29,-147.78 479.56,-159.99" style=""/>
<text text-anchor="middle" x="407" y="-160.4" font-family="Times,serif" font-size="12.00" style="">Unknown Library</text>
</g>
<!-- legendNode3&#45;&gt;legendNode6 -->
<g id="edge6" class="edge" data-name="legendNode3-&gt;legendNode6">

<path fill="none" stroke="black" d="M378.45,-234.4C383.85,-221.28 390.43,-205.29 395.91,-191.96" style=""/>
<polygon fill="black" stroke="black" points="399.06,-193.49 399.63,-182.91 392.59,-190.83 399.06,-193.49" style=""/>
</g>
<!-- node0 -->
<g id="node9" class="node" pointer-events="visible" data-name="node0">

<polygon fill="none" stroke="black" points="924,-334.34 924,-349.26 908.18,-359.8 885.82,-359.8 870,-349.26 870,-334.34 885.82,-323.8 908.18,-323.8 924,-334.34" style=""/>
<text text-anchor="middle" x="897" y="-338.2" font-family="Times,serif" font-size="12.00" style="">bsp</text>
</g>
<!-- node1 -->
<g id="node10" class="node" pointer-events="visible" data-name="node1">

<polygon fill="none" stroke="black" points="711.6,-164 691.3,-182 650.7,-182 630.4,-164 650.7,-146 691.3,-146 711.6,-164" style=""/>
<text text-anchor="middle" x="671" y="-160.4" font-family="Times,serif" font-size="12.00" style="">bsp_adc</text>
</g>
<!-- node0&#45;&gt;node1 -->
<g id="edge12" class="edge" data-name="node0-&gt;node1">

<path fill="none" stroke="black" d="M869.78,-338.38C827.19,-334.1 747.44,-323.86 726,-305.8 692.37,-277.46 679.2,-225.88 674.11,-193.64" style=""/>
<polygon fill="black" stroke="black" points="677.59,-193.24 672.74,-183.82 670.66,-194.2 677.59,-193.24" style=""/>
</g>
<!-- node2 -->
<g id="node11" class="node" pointer-events="visible" data-name="node2">

<polygon fill="none" stroke="black" points="754.06,-91 725.53,-109 668.47,-109 639.94,-91 668.47,-73 725.53,-73 754.06,-91" style=""/>
<text text-anchor="middle" x="697" y="-87.4" font-family="Times,serif" font-size="12.00" style="">bsp_swtimer</text>
</g>
<!-- node0&#45;&gt;node2 -->
<g id="edge35" class="edge" data-name="node0-&gt;node2">

<path fill="none" stroke="black" d="M869.72,-337.57C838.41,-332.4 787.71,-319.28 759,-286.8 713.79,-235.66 745.39,-201.75 721,-138 718.67,-131.9 715.73,-125.57 712.72,-119.62" style=""/>
<polygon fill="black" stroke="black" points="715.82,-118 708.04,-110.81 709.64,-121.28 715.82,-118" style=""/>
</g>
<!-- node4 -->
<g id="node13" class="node" pointer-events="visible" data-name="node4">

<polygon fill="none" stroke="black" points="891.19,-10.54 891.19,-25.46 867.65,-36 834.35,-36 810.81,-25.46 810.81,-10.54 834.35,0 867.65,0 891.19,-10.54" style=""/>
<text text-anchor="middle" x="851" y="-14.4" font-family="Times,serif" font-size="12.00" style="">cpb::v02</text>
</g>
<!-- node0&#45;&gt;node4 -->
<g id="edge36" class="edge" data-name="node0-&gt;node4">

<path fill="none" stroke="black" stroke-dasharray="1,5" d="M869.74,-339.95C791.87,-336.78 574,-322.49 574,-261.8 574,-261.8 574,-261.8 574,-90 574,-44.04 718.88,-27.42 799.09,-21.74" style=""/>
<polygon fill="black" stroke="black" points="799.17,-25.25 808.92,-21.09 798.7,-18.26 799.17,-25.25" style=""/>
</g>
<!-- node5 -->
<g id="node14" class="node" pointer-events="visible" data-name="node5">

<polygon fill="none" stroke="black" points="849.6,-260.8 829.3,-278.8 788.7,-278.8 768.4,-260.8 788.7,-242.8 829.3,-242.8 849.6,-260.8" style=""/>
<text text-anchor="middle" x="809" y="-257.2" font-family="Times,serif" font-size="12.00" style="">bsp_can</text>
</g>
<!-- node0&#45;&gt;node5 -->
<g id="edge20" class="edge" data-name="node0-&gt;node5">

<path fill="none" stroke="black" d="M881.27,-326.68C868.87,-315.55 851.28,-299.75 836.56,-286.54" style=""/>
<polygon fill="black" stroke="black" points="839.19,-284.2 829.41,-280.12 834.51,-289.41 839.19,-284.2" style=""/>
</g>
<!-- node6 -->
<g id="node15" class="node" pointer-events="visible" data-name="node6">

<polygon fill="none" stroke="black" points="888.16,-164 868.58,-182 829.42,-182 809.84,-164 829.42,-146 868.58,-146 888.16,-164" style=""/>
<text text-anchor="middle" x="849" y="-160.4" font-family="Times,serif" font-size="12.00" style="">bsp_led</text>
</g>
<!-- node0&#45;&gt;node6 -->
<g id="edge25" class="edge" data-name="node0-&gt;node6">

<path fill="none" stroke="black" d="M892.22,-323.3C883.92,-292.89 866.76,-230.05 856.74,-193.35" style=""/>
<polygon fill="black" stroke="black" points="860.17,-192.61 854.16,-183.89 853.41,-194.46 860.17,-192.61" style=""/>
</g>
<!-- node7 -->
<g id="node16" class="node" pointer-events="visible" data-name="node7">

<polygon fill="none" stroke="black" points="936.01,-91 914,-109 870,-109 847.99,-91 870,-73 914,-73 936.01,-91" style=""/>
<text text-anchor="middle" x="892" y="-87.4" font-family="Times,serif" font-size="12.00" style="">bsp_gpio</text>
</g>
<!-- node0&#45;&gt;node7 -->
<g id="edge21" class="edge" data-name="node0-&gt;node7">

<path fill="none" stroke="black" d="M899.77,-323.63C900.51,-317.68 901.07,-310.96 901,-304.8 900.11,-230.65 901.9,-211.99 897,-138 896.63,-132.38 896.09,-126.4 895.49,-120.66" style=""/>
<polygon fill="black" stroke="black" points="899,-120.5 894.41,-110.95 892.04,-121.27 899,-120.5" style=""/>
</g>
<!-- node8 -->
<g id="node17" class="node" pointer-events="visible" data-name="node8">

<polygon fill="none" stroke="black" points="1033.16,-91 1013.58,-109 974.42,-109 954.84,-91 974.42,-73 1013.58,-73 1033.16,-91" style=""/>
<text text-anchor="middle" x="994" y="-87.4" font-family="Times,serif" font-size="12.00" style="">bsp_i2c</text>
</g>
<!-- node0&#45;&gt;node8 -->
<g id="edge24" class="edge" data-name="node0-&gt;node8">

<path fill="none" stroke="black" d="M906.39,-323.55C909.3,-317.96 912.41,-311.68 915,-305.8 943.63,-240.72 970.99,-161.67 984.76,-120.32" style=""/>
<polygon fill="black" stroke="black" points="988.06,-121.49 987.87,-110.9 981.41,-119.3 988.06,-121.49" style=""/>
</g>
<!-- node9 -->
<g id="node18" class="node" pointer-events="visible" data-name="node9">

<polygon fill="none" stroke="black" points="1237.44,-91 1214.22,-109 1167.78,-109 1144.56,-91 1167.78,-73 1214.22,-73 1237.44,-91" style=""/>
<text text-anchor="middle" x="1191" y="-87.4" font-family="Times,serif" font-size="12.00" style="">bsp_pwm</text>
</g>
<!-- node0&#45;&gt;node9 -->
<g id="edge28" class="edge" data-name="node0-&gt;node9">

<path fill="none" stroke="black" d="M916.75,-329.25C933.98,-318.87 959.38,-302.84 980,-286.8 1051.52,-231.16 1127.84,-156.33 1166.1,-117.61" style=""/>
<polygon fill="black" stroke="black" points="1168.53,-120.13 1173.05,-110.55 1163.54,-115.22 1168.53,-120.13" style=""/>
</g>
<!-- node10 -->
<g id="node19" class="node" pointer-events="visible" data-name="node10">

<polygon fill="none" stroke="black" points="1126.71,-91 1107.85,-109 1070.15,-109 1051.29,-91 1070.15,-73 1107.85,-73 1126.71,-91" style=""/>
<text text-anchor="middle" x="1089" y="-87.4" font-family="Times,serif" font-size="12.00" style="">bsp_rtc</text>
</g>
<!-- node0&#45;&gt;node10 -->
<g id="edge31" class="edge" data-name="node0-&gt;node10">

<path fill="none" stroke="black" d="M911.49,-326.09C921.75,-315.47 935.64,-300.61 947,-286.8 994.47,-229.1 1044.8,-157.13 1070.91,-118.86" style=""/>
<polygon fill="black" stroke="black" points="1073.73,-120.93 1076.46,-110.69 1067.94,-117 1073.73,-120.93" style=""/>
</g>
<!-- node11 -->
<g id="node20" class="node" pointer-events="visible" data-name="node11">

<polygon fill="none" stroke="black" points="1332.7,-91 1313.35,-109 1274.65,-109 1255.3,-91 1274.65,-73 1313.35,-73 1332.7,-91" style=""/>
<text text-anchor="middle" x="1294" y="-87.4" font-family="Times,serif" font-size="12.00" style="">bsp_spi</text>
</g>
<!-- node0&#45;&gt;node11 -->
<g id="edge34" class="edge" data-name="node0-&gt;node11">

<path fill="none" stroke="black" d="M921.64,-332.19C947.8,-322.63 989.98,-305.98 1024,-286.8 1117.46,-234.09 1217.34,-155.4 1265.19,-116.12" style=""/>
<polygon fill="black" stroke="black" points="1267.4,-118.84 1272.89,-109.77 1262.95,-113.44 1267.4,-118.84" style=""/>
</g>
<!-- node1&#45;&gt;node2 -->
<g id="edge10" class="edge" data-name="node1-&gt;node2">

<path fill="none" stroke="black" d="M677.29,-145.81C680.17,-137.96 683.64,-128.47 686.87,-119.66" style=""/>
<polygon fill="black" stroke="black" points="690.09,-121.04 690.24,-110.45 683.52,-118.64 690.09,-121.04" style=""/>
</g>
<!-- node1&#45;&gt;node4 -->
<g id="edge11" class="edge" data-name="node1-&gt;node4">

<path fill="none" stroke="black" stroke-dasharray="1,5" d="M653.15,-145.73C635.5,-126.55 613.48,-95.33 631,-73 651.53,-46.82 741.05,-31.65 799.38,-24.38" style=""/>
<polygon fill="black" stroke="black" points="799.58,-27.88 809.09,-23.21 798.75,-20.93 799.58,-27.88" style=""/>
</g>
<!-- node3 -->
<g id="node12" class="node" pointer-events="visible" data-name="node3">

<polygon fill="none" stroke="black" points="1104.87,-23.56 1041,-36 977.13,-23.56 1001.53,-3.44 1080.47,-3.44 1104.87,-23.56" style=""/>
<text text-anchor="middle" x="1041" y="-14.4" font-family="Times,serif" font-size="12.00" style="">bsp_common</text>
</g>
<!-- node2&#45;&gt;node3 -->
<g id="edge8" class="edge" data-name="node2-&gt;node3">

<path fill="none" stroke="black" d="M739.18,-81.29C801.38,-68.46 917.74,-44.44 986.38,-30.27" style=""/>
<polygon fill="black" stroke="black" points="986.82,-33.76 995.91,-28.31 985.41,-26.9 986.82,-33.76" style=""/>
</g>
<!-- node2&#45;&gt;node4 -->
<g id="edge9" class="edge" data-name="node2-&gt;node4">

<path fill="none" stroke="black" stroke-dasharray="1,5" d="M707.61,-72.6C712.47,-65.92 718.76,-58.77 726,-54 747.75,-39.66 775.34,-31.14 799.06,-26.1" style=""/>
<polygon fill="black" stroke="black" points="799.73,-29.53 808.87,-24.18 798.39,-22.66 799.73,-29.53" style=""/>
</g>
<!-- node5&#45;&gt;node4 -->
<g id="edge19" class="edge" data-name="node5-&gt;node4">

<path fill="none" stroke="black" stroke-dasharray="1,5" d="M805.07,-242.67C800.25,-218.92 793.59,-174.77 801,-138 807.64,-105.04 823.67,-69.85 835.8,-46.35" style=""/>
<polygon fill="black" stroke="black" points="838.76,-48.24 840.35,-37.77 832.58,-44.97 838.76,-48.24" style=""/>
</g>
<!-- node5&#45;&gt;node6 -->
<g id="edge18" class="edge" data-name="node5-&gt;node6">

<path fill="none" stroke="black" d="M816.34,-242.41C822.2,-228.51 830.53,-208.77 837.31,-192.7" style=""/>
<polygon fill="black" stroke="black" points="840.46,-194.25 841.12,-183.67 834.01,-191.52 840.46,-194.25" style=""/>
</g>
<!-- node6&#45;&gt;node2 -->
<g id="edge16" class="edge" data-name="node6-&gt;node2">

<path fill="none" stroke="black" d="M823.56,-151.12C800.65,-140.42 766.54,-124.48 739.49,-111.85" style=""/>
<polygon fill="black" stroke="black" points="741.05,-108.72 730.51,-107.65 738.09,-115.06 741.05,-108.72" style=""/>
</g>
<!-- node6&#45;&gt;node4 -->
<g id="edge17" class="edge" data-name="node6-&gt;node4">

<path fill="none" stroke="black" stroke-dasharray="1,5" d="M844.94,-145.6C842.69,-135.08 840.13,-121.34 839,-109 837.54,-93.07 837.25,-88.9 839,-73 839.93,-64.56 841.64,-55.52 843.49,-47.29" style=""/>
<polygon fill="black" stroke="black" points="846.84,-48.36 845.78,-37.82 840.03,-46.72 846.84,-48.36" style=""/>
</g>
<!-- node6&#45;&gt;node7 -->
<g id="edge15" class="edge" data-name="node6-&gt;node7">

<path fill="none" stroke="black" d="M859.41,-145.81C864.32,-137.7 870.3,-127.84 875.78,-118.78" style=""/>
<polygon fill="black" stroke="black" points="878.72,-120.69 880.9,-110.32 872.73,-117.06 878.72,-120.69" style=""/>
</g>
<!-- node7&#45;&gt;node3 -->
<g id="edge13" class="edge" data-name="node7-&gt;node3">

<path fill="none" stroke="black" d="M919.33,-76.98C943.4,-65.51 978.63,-48.72 1005,-36.16" style=""/>
<polygon fill="black" stroke="black" points="1006.45,-39.34 1013.97,-31.88 1003.44,-33.02 1006.45,-39.34" style=""/>
</g>
<!-- node7&#45;&gt;node4 -->
<g id="edge14" class="edge" data-name="node7-&gt;node4">

<path fill="none" stroke="black" stroke-dasharray="1,5" d="M882.08,-72.81C877.39,-64.7 871.69,-54.84 866.46,-45.78" style=""/>
<polygon fill="black" stroke="black" points="869.62,-44.25 861.59,-37.34 863.56,-47.75 869.62,-44.25" style=""/>
</g>
<!-- node8&#45;&gt;node3 -->
<g id="edge22" class="edge" data-name="node8-&gt;node3">

<path fill="none" stroke="black" d="M1005.38,-72.81C1011.18,-64.04 1018.35,-53.21 1024.73,-43.58" style=""/>
<polygon fill="black" stroke="black" points="1027.57,-45.63 1030.17,-35.36 1021.73,-41.77 1027.57,-45.63" style=""/>
</g>
<!-- node8&#45;&gt;node4 -->
<g id="edge23" class="edge" data-name="node8-&gt;node4">

<path fill="none" stroke="black" stroke-dasharray="1,5" d="M969.09,-77.63C946.44,-66.39 912.75,-49.66 887.15,-36.95" style=""/>
<polygon fill="black" stroke="black" points="888.94,-33.93 878.43,-32.62 885.83,-40.2 888.94,-33.93" style=""/>
</g>
<!-- node9&#45;&gt;node3 -->
<g id="edge26" class="edge" data-name="node9-&gt;node3">

<path fill="none" stroke="black" d="M1176.54,-72.77C1170.21,-66.12 1162.32,-58.94 1154,-54 1136.51,-43.61 1115.64,-36.02 1096.61,-30.62" style=""/>
<polygon fill="black" stroke="black" points="1097.7,-27.29 1087.13,-28.08 1095.89,-34.05 1097.7,-27.29" style=""/>
</g>
<!-- node9&#45;&gt;node4 -->
<g id="edge27" class="edge" data-name="node9-&gt;node4">

<path fill="none" stroke="black" stroke-dasharray="1,5" d="M1158.89,-79.41C1151.42,-77.13 1143.47,-74.86 1136,-73 1055.3,-52.95 960.13,-36.3 902.74,-27" style=""/>
<polygon fill="black" stroke="black" points="903.35,-23.56 892.92,-25.43 902.24,-30.47 903.35,-23.56" style=""/>
</g>
<!-- node10&#45;&gt;node3 -->
<g id="edge29" class="edge" data-name="node10-&gt;node3">

<path fill="none" stroke="black" d="M1077.38,-72.81C1071.45,-64.04 1064.13,-53.21 1057.62,-43.58" style=""/>
<polygon fill="black" stroke="black" points="1060.56,-41.68 1052.06,-35.35 1054.76,-45.6 1060.56,-41.68" style=""/>
</g>
<!-- node10&#45;&gt;node4 -->
<g id="edge30" class="edge" data-name="node10-&gt;node4">

<path fill="none" stroke="black" stroke-dasharray="1,5" d="M1062.27,-79.96C1055.68,-77.58 1048.61,-75.13 1042,-73 992.89,-57.2 935.89,-41.41 897.03,-31.02" style=""/>
<polygon fill="black" stroke="black" points="898.1,-27.69 887.54,-28.5 896.31,-34.45 898.1,-27.69" style=""/>
</g>
<!-- node11&#45;&gt;node3 -->
<g id="edge32" class="edge" data-name="node11-&gt;node3">

<path fill="none" stroke="black" d="M1278.85,-72.57C1271.95,-65.72 1263.26,-58.45 1254,-54 1209.91,-32.82 1155.4,-24.14 1112.57,-20.72" style=""/>
<polygon fill="black" stroke="black" points="1112.83,-17.23 1102.6,-20.01 1112.33,-24.21 1112.83,-17.23" style=""/>
</g>
<!-- node11&#45;&gt;node4 -->
<g id="edge33" class="edge" data-name="node11-&gt;node4">

<path fill="none" stroke="black" stroke-dasharray="1,5" d="M1267.14,-79.38C1260.32,-76.99 1252.96,-74.68 1246,-73 1124.82,-43.81 1091.45,-53.18 968,-36 946.66,-33.03 923.14,-29.64 902.83,-26.67" style=""/>
<polygon fill="black" stroke="black" points="903.49,-23.23 893.09,-25.24 902.48,-30.15 903.49,-23.23" style=""/>
</g>
</g>
</svg>