<?xml version="1.0" standalone="no"?>
<svg xmlns="http://www.w3.org/2000/svg" xmlns:xlink="http://www.w3.org/1999/xlink" width="1053pt" height="336pt" viewBox="0.00 0.00 1053.29 335.60">
<g id="graph0" class="graph" transform="translate(4,331.6000061035156) scale(1)" data-name="bsp_lib">

<polygon fill="white" stroke="none" points="-4,4 -4,-331.6 1049.29,-331.6 1049.29,4 -4,4" style=""/>
<g id="clust1" class="cluster" data-name="clusterLegend">

<polygon fill="none" stroke="black" points="8,-65 8,-319.6 554,-319.6 554,-65 8,-65" style=""/>
<text text-anchor="middle" x="281" y="-303" font-family="Times,serif" font-size="14.00" style="">Legend</text>
</g>
<!-- legendNode0 -->
<g id="node1" class="node" pointer-events="visible" data-name="legendNode0">

<polygon fill="none" stroke="black" points="286.37,-250.85 289.27,-250.95 292.14,-251.1 294.96,-251.29 297.73,-251.54 300.44,-251.83 303.07,-252.16 305.62,-252.55 308.07,-252.98 310.42,-253.45 312.66,-253.96 314.78,-254.51 316.76,-255.11 318.62,-255.74 320.34,-256.41 321.91,-257.11 323.33,-257.84 324.61,-258.6 325.73,-259.39 326.7,-260.21 327.51,-261.05 328.17,-261.91 328.67,-262.79 329.02,-263.69 329.22,-264.6 329.28,-265.52 329.19,-266.45 328.96,-267.39 328.59,-268.33 328.1,-269.27 327.48,-270.21 326.75,-271.15 325.9,-272.08 324.94,-273 323.89,-273.91 322.74,-274.81 321.5,-275.69 320.19,-276.55 318.79,-277.39 317.33,-278.21 315.81,-279 314.23,-279.76 312.6,-280.49 310.93,-281.19 309.21,-281.86 307.46,-282.49 305.67,-283.09 303.86,-283.64 302.03,-284.15 300.17,-284.62 298.3,-285.05 296.41,-285.44 294.51,-285.77 292.6,-286.06 290.68,-286.31 288.76,-286.5 286.83,-286.65 284.9,-286.75 282.97,-286.8 281.03,-286.8 279.1,-286.75 277.17,-286.65 275.24,-286.5 273.32,-286.31 271.4,-286.06 269.49,-285.77 267.59,-285.44 265.7,-285.05 263.83,-284.62 261.97,-284.15 260.14,-283.64 258.33,-283.09 256.54,-282.49 254.79,-281.86 253.07,-281.19 251.4,-280.49 249.77,-279.76 248.19,-279 246.67,-278.21 245.21,-277.39 243.81,-276.55 242.5,-275.69 241.26,-274.81 240.11,-273.91 239.06,-273 238.1,-272.08 237.25,-271.15 236.52,-270.21 235.9,-269.27 235.41,-268.33 235.04,-267.39 234.81,-266.45 234.72,-265.52 234.78,-264.6 234.98,-263.69 235.33,-262.79 235.83,-261.91 236.49,-261.05 237.3,-260.21 238.27,-259.39 239.39,-258.6 240.67,-257.84 242.09,-257.11 243.66,-256.41 245.38,-255.74 247.24,-255.11 249.22,-254.51 251.34,-253.96 253.58,-253.45 255.93,-252.98 258.38,-252.55 260.93,-252.16 263.56,-251.83 266.27,-251.54 269.04,-251.29 271.86,-251.1 274.73,-250.95 277.63,-250.85 280.54,-250.8 283.46,-250.8 286.37,-250.85" style=""/>
<text text-anchor="middle" x="282" y="-265.2" font-family="Times,serif" font-size="12.00" style="">Executable</text>
</g>
<!-- legendNode1 -->
<g id="node2" class="node" pointer-events="visible" data-name="legendNode1">

<polygon fill="none" stroke="black" points="397.81,-180.34 397.81,-195.26 364.53,-205.8 317.47,-205.8 284.19,-195.26 284.19,-180.34 317.47,-169.8 364.53,-169.8 397.81,-180.34" style=""/>
<text text-anchor="middle" x="341" y="-184.2" font-family="Times,serif" font-size="12.00" style="">Static Library</text>
</g>
<!-- legendNode0&#45;&gt;legendNode1 -->
<g id="edge1" class="edge" data-name="legendNode0-&gt;legendNode1">

<path fill="none" stroke="black" d="M294.51,-251.05C302.31,-240.61 312.5,-226.96 321.35,-215.1" style=""/>
<polygon fill="black" stroke="black" points="324.01,-217.4 327.19,-207.29 318.4,-213.21 324.01,-217.4" style=""/>
</g>
<!-- legendNode2 -->
<g id="node3" class="node" pointer-events="visible" data-name="legendNode2">

<polygon fill="none" stroke="black" points="542.09,-180.34 542.09,-195.26 506.3,-205.8 455.7,-205.8 419.91,-195.26 419.91,-180.34 455.7,-169.8 506.3,-169.8 542.09,-180.34" style=""/>
<polygon fill="none" stroke="black" points="546.09,-177.35 546.09,-198.25 506.88,-209.8 455.12,-209.8 415.91,-198.25 415.91,-177.35 455.12,-165.8 506.88,-165.8 546.09,-177.35" style=""/>
<text text-anchor="middle" x="481" y="-184.2" font-family="Times,serif" font-size="12.00" style="">Shared Library</text>
</g>
<!-- legendNode0&#45;&gt;legendNode2 -->
<g id="edge2" class="edge" data-name="legendNode0-&gt;legendNode2">

<path fill="none" stroke="black" d="M315.76,-254.4C346.74,-242.1 393.12,-223.69 428.87,-209.5" style=""/>
<polygon fill="black" stroke="black" points="429.7,-212.93 437.71,-205.99 427.12,-206.42 429.7,-212.93" style=""/>
</g>
<!-- legendNode3 -->
<g id="node4" class="node" pointer-events="visible" data-name="legendNode3">

<polygon fill="none" stroke="black" points="151.66,-180.34 151.66,-195.26 114.37,-205.8 61.63,-205.8 24.34,-195.26 24.34,-180.34 61.63,-169.8 114.37,-169.8 151.66,-180.34" style=""/>
<polygon fill="none" stroke="black" points="155.65,-177.32 155.65,-198.28 114.92,-209.8 61.08,-209.8 20.35,-198.28 20.35,-177.32 61.08,-165.8 114.92,-165.8 155.65,-177.32" style=""/>
<polygon fill="none" stroke="black" points="159.64,-174.29 159.64,-201.31 115.47,-213.8 60.53,-213.8 16.36,-201.31 16.36,-174.29 60.53,-161.8 115.47,-161.8 159.64,-174.29" style=""/>
<text text-anchor="middle" x="88" y="-184.2" font-family="Times,serif" font-size="12.00" style="">Module Library</text>
</g>
<!-- legendNode0&#45;&gt;legendNode3 -->
<!-- legendNode7 -->
<g id="node8" class="node" pointer-events="visible" data-name="legendNode7">

<polygon fill="none" stroke="black" points="265.65,-205.8 178.35,-205.8 178.35,-169.8 265.65,-169.8 265.65,-205.8" style=""/>
<text text-anchor="middle" x="222" y="-184.2" font-family="Times,serif" font-size="12.00" style="">Custom Target</text>
</g>
<!-- legendNode0&#45;&gt;legendNode7 -->
<!-- legendNode4 -->
<g id="node5" class="node" pointer-events="visible" data-name="legendNode4">

<polygon fill="none" stroke="black" points="399.12,-96.56 322,-109 244.88,-96.56 274.34,-76.44 369.66,-76.44 399.12,-96.56" style=""/>
<text text-anchor="middle" x="322" y="-87.4" font-family="Times,serif" font-size="12.00" style="">Interface Library</text>
</g>
<!-- legendNode1&#45;&gt;legendNode4 -->
<g id="edge4" class="edge" data-name="legendNode1-&gt;legendNode4">

<path fill="none" stroke="black" stroke-dasharray="5,2" d="M337.52,-169.41C334.72,-155.48 330.75,-135.66 327.52,-119.57" style=""/>
<polygon fill="black" stroke="black" points="331.03,-119.24 325.63,-110.13 324.17,-120.62 331.03,-119.24" style=""/>
<text text-anchor="middle" x="357.87" y="-131.2" font-family="Times,serif" font-size="14.00" style="">Interface</text>
</g>
<!-- legendNode5 -->
<g id="node6" class="node" pointer-events="visible" data-name="legendNode5">

<polygon fill="none" stroke="black" points="545.28,-91 513.14,-109 448.86,-109 416.72,-91 448.86,-73 513.14,-73 545.28,-91" style=""/>
<text text-anchor="middle" x="481" y="-87.4" font-family="Times,serif" font-size="12.00" style="">Object Library</text>
</g>
<!-- legendNode2&#45;&gt;legendNode5 -->
<g id="edge5" class="edge" data-name="legendNode2-&gt;legendNode5">

<path fill="none" stroke="black" stroke-dasharray="1,5" d="M481,-165.76C481,-152.55 481,-135.33 481,-120.86" style=""/>
<polygon fill="black" stroke="black" points="484.5,-121 481,-111 477.5,-121 484.5,-121" style=""/>
<text text-anchor="middle" x="500.83" y="-131.2" font-family="Times,serif" font-size="14.00" style="">Private</text>
</g>
<!-- legendNode6 -->
<g id="node7" class="node" pointer-events="visible" data-name="legendNode6">

<polygon fill="none" stroke="black" points="161.56,-86.99 147.19,-102.22 89,-109 30.81,-102.22 16.44,-86.99 56.71,-74.78 121.29,-74.78 161.56,-86.99" style=""/>
<text text-anchor="middle" x="89" y="-87.4" font-family="Times,serif" font-size="12.00" style="">Unknown Library</text>
</g>
<!-- legendNode3&#45;&gt;legendNode6 -->
<g id="edge6" class="edge" data-name="legendNode3-&gt;legendNode6">

<path fill="none" stroke="black" d="M88.27,-161.4C88.4,-148.8 88.56,-133.54 88.7,-120.54" style=""/>
<polygon fill="black" stroke="black" points="92.19,-120.93 88.8,-110.89 85.2,-120.85 92.19,-120.93" style=""/>
</g>
<!-- node0 -->
<g id="node9" class="node" pointer-events="visible" data-name="node0">

<polygon fill="none" stroke="black" points="1030.49,-180.34 1030.49,-195.26 1007.94,-205.8 976.06,-205.8 953.51,-195.26 953.51,-180.34 976.06,-169.8 1007.94,-169.8 1030.49,-180.34" style=""/>
<text text-anchor="middle" x="992" y="-184.2" font-family="Times,serif" font-size="12.00" style="">bsp_adc</text>
</g>
<!-- node1 -->
<g id="node10" class="node" pointer-events="visible" data-name="node1">

<polygon fill="none" stroke="black" points="862.42,-83.54 862.42,-98.46 831.13,-109 786.87,-109 755.58,-98.46 755.58,-83.54 786.87,-73 831.13,-73 862.42,-83.54" style=""/>
<text text-anchor="middle" x="809" y="-87.4" font-family="Times,serif" font-size="12.00" style="">bsp_swtimer</text>
</g>
<!-- node0&#45;&gt;node1 -->
<g id="edge10" class="edge" data-name="node0-&gt;node1">

<path fill="none" stroke="black" d="M966.94,-173.82C936.29,-157.94 884.06,-130.89 848.11,-112.26" style=""/>
<polygon fill="black" stroke="black" points="849.81,-109.2 839.32,-107.71 846.59,-115.42 849.81,-109.2" style=""/>
</g>
<!-- node3 -->
<g id="node12" class="node" pointer-events="visible" data-name="node3">

<polygon fill="none" stroke="black" points="957.19,-10.54 957.19,-25.46 933.65,-36 900.35,-36 876.81,-25.46 876.81,-10.54 900.35,0 933.65,0 957.19,-10.54" style=""/>
<text text-anchor="middle" x="917" y="-14.4" font-family="Times,serif" font-size="12.00" style="">cpb::v02</text>
</g>
<!-- node0&#45;&gt;node3 -->
<g id="edge11" class="edge" data-name="node0-&gt;node3">

<path fill="none" stroke="black" stroke-dasharray="1,5" d="M992.72,-169.6C993.15,-145.4 991.76,-100.3 978,-65 973.55,-53.57 964.35,-44.4 954.43,-37.34" style=""/>
<polygon fill="black" stroke="black" points="956.4,-34.46 946.09,-32.04 952.64,-40.36 956.4,-34.46" style=""/>
</g>
<!-- node2 -->
<g id="node11" class="node" pointer-events="visible" data-name="node2">

<polygon fill="none" stroke="black" points="830.87,-23.56 767,-36 703.13,-23.56 727.53,-3.44 806.47,-3.44 830.87,-23.56" style=""/>
<text text-anchor="middle" x="767" y="-14.4" font-family="Times,serif" font-size="12.00" style="">bsp_common</text>
</g>
<!-- node1&#45;&gt;node2 -->
<g id="edge8" class="edge" data-name="node1-&gt;node2">

<path fill="none" stroke="black" d="M798.83,-72.81C793.77,-64.25 787.55,-53.74 781.95,-44.28" style=""/>
<polygon fill="black" stroke="black" points="785.09,-42.7 776.98,-35.88 779.06,-46.27 785.09,-42.7" style=""/>
</g>
<!-- node1&#45;&gt;node3 -->
<g id="edge9" class="edge" data-name="node1-&gt;node3">

<path fill="none" stroke="black" stroke-dasharray="1,5" d="M834.05,-73.53C849.36,-63.46 869.09,-50.5 885.46,-39.73" style=""/>
<polygon fill="black" stroke="black" points="886.96,-42.94 893.39,-34.52 883.11,-37.09 886.96,-42.94" style=""/>
</g>
<!-- node4 -->
<g id="node13" class="node" pointer-events="visible" data-name="node4">

<polygon fill="none" stroke="black" points="994.49,-261.34 994.49,-276.26 971.94,-286.8 940.06,-286.8 917.51,-276.26 917.51,-261.34 940.06,-250.8 971.94,-250.8 994.49,-261.34" style=""/>
<text text-anchor="middle" x="956" y="-265.2" font-family="Times,serif" font-size="12.00" style="">bsp_can</text>
</g>
<!-- node4&#45;&gt;node3 -->
<g id="edge18" class="edge" data-name="node4-&gt;node3">

<path fill="none" stroke="black" stroke-dasharray="1,5" d="M985.85,-257.06C1004.79,-248.51 1027.77,-234.5 1039,-213.8 1050.02,-193.48 1043.7,-184.43 1039,-161.8 1028.15,-109.53 1029.22,-85.34 986,-54 976.8,-47.33 966.14,-41.24 956,-36.09" style=""/>
<polygon fill="black" stroke="black" points="957.58,-32.96 947.06,-31.73 954.51,-39.25 957.58,-32.96" style=""/>
</g>
<!-- node5 -->
<g id="node14" class="node" pointer-events="visible" data-name="node5">

<polygon fill="none" stroke="black" points="912.74,-180.34 912.74,-195.26 891.22,-205.8 860.78,-205.8 839.26,-195.26 839.26,-180.34 860.78,-169.8 891.22,-169.8 912.74,-180.34" style=""/>
<text text-anchor="middle" x="876" y="-184.2" font-family="Times,serif" font-size="12.00" style="">bsp_led</text>
</g>
<!-- node4&#45;&gt;node5 -->
<g id="edge17" class="edge" data-name="node4-&gt;node5">

<path fill="none" stroke="black" d="M939.03,-251.05C927.93,-240.08 913.23,-225.56 900.82,-213.31" style=""/>
<polygon fill="black" stroke="black" points="903.32,-210.86 893.74,-206.32 898.4,-215.84 903.32,-210.86" style=""/>
</g>
<!-- node5&#45;&gt;node1 -->
<g id="edge15" class="edge" data-name="node5-&gt;node1">

<path fill="none" stroke="black" d="M863.71,-169.41C853.61,-155.11 839.13,-134.62 827.6,-118.32" style=""/>
<polygon fill="black" stroke="black" points="830.71,-116.66 822.08,-110.51 825,-120.7 830.71,-116.66" style=""/>
</g>
<!-- node5&#45;&gt;node3 -->
<g id="edge16" class="edge" data-name="node5-&gt;node3">

<path fill="none" stroke="black" stroke-dasharray="1,5" d="M899.28,-173.6C920.11,-160.32 949.26,-137.71 962,-109 969.93,-91.13 969.38,-83.11 962,-65 958.56,-56.56 952.74,-48.83 946.41,-42.21" style=""/>
<polygon fill="black" stroke="black" points="949.02,-39.86 939.36,-35.5 944.19,-44.93 949.02,-39.86" style=""/>
</g>
<!-- node6 -->
<g id="node15" class="node" pointer-events="visible" data-name="node6">

<polygon fill="none" stroke="black" points="737.46,-83.54 737.46,-98.46 713.18,-109 678.82,-109 654.54,-98.46 654.54,-83.54 678.82,-73 713.18,-73 737.46,-83.54" style=""/>
<text text-anchor="middle" x="696" y="-87.4" font-family="Times,serif" font-size="12.00" style="">bsp_gpio</text>
</g>
<!-- node5&#45;&gt;node6 -->
<g id="edge14" class="edge" data-name="node5-&gt;node6">

<path fill="none" stroke="black" d="M851.72,-174.01C820.89,-157.78 767.44,-129.62 731.89,-110.9" style=""/>
<polygon fill="black" stroke="black" points="733.74,-107.92 723.27,-106.36 730.48,-114.12 733.74,-107.92" style=""/>
</g>
<!-- node6&#45;&gt;node2 -->
<g id="edge12" class="edge" data-name="node6-&gt;node2">

<path fill="none" stroke="black" d="M713.19,-72.81C722.55,-63.45 734.25,-51.75 744.35,-41.65" style=""/>
<polygon fill="black" stroke="black" points="746.7,-44.25 751.3,-34.7 741.75,-39.3 746.7,-44.25" style=""/>
</g>
<!-- node6&#45;&gt;node3 -->
<g id="edge13" class="edge" data-name="node6-&gt;node3">

<path fill="none" stroke="black" stroke-dasharray="1,5" d="M721.52,-76.3C729.54,-72.32 738.51,-68.2 747,-65 786.85,-50 833.65,-37.71 868.05,-29.62" style=""/>
<polygon fill="black" stroke="black" points="868.78,-33.04 877.73,-27.38 867.2,-26.22 868.78,-33.04" style=""/>
</g>
<!-- node7 -->
<g id="node16" class="node" pointer-events="visible" data-name="node7">

<polygon fill="none" stroke="black" points="636.74,-83.54 636.74,-98.46 615.22,-109 584.78,-109 563.26,-98.46 563.26,-83.54 584.78,-73 615.22,-73 636.74,-83.54" style=""/>
<text text-anchor="middle" x="600" y="-87.4" font-family="Times,serif" font-size="12.00" style="">bsp_i2c</text>
</g>
<!-- node7&#45;&gt;node2 -->
<g id="edge19" class="edge" data-name="node7-&gt;node2">

<path fill="none" stroke="black" d="M623.75,-76.79C630.87,-72.91 638.71,-68.72 646,-65 656.09,-59.85 658.54,-58.36 669,-54 686.38,-46.76 705.84,-39.62 722.81,-33.69" style=""/>
<polygon fill="black" stroke="black" points="723.82,-37.05 732.13,-30.48 721.54,-30.43 723.82,-37.05" style=""/>
</g>
<!-- node7&#45;&gt;node3 -->
<g id="edge20" class="edge" data-name="node7-&gt;node3">

<path fill="none" stroke="black" stroke-dasharray="1,5" d="M622.22,-75.9C629.54,-71.8 637.9,-67.71 646,-65 728.67,-37.32 754.27,-51.85 840,-36 849.58,-34.23 859.78,-32.13 869.52,-30.02" style=""/>
<polygon fill="black" stroke="black" points="870.19,-33.46 879.2,-27.88 868.68,-26.62 870.19,-33.46" style=""/>
</g>
<!-- node8 -->
<g id="node17" class="node" pointer-events="visible" data-name="node8">

<polygon fill="none" stroke="black" points="953.33,-83.54 953.33,-98.46 932.05,-109 901.95,-109 880.67,-98.46 880.67,-83.54 901.95,-73 932.05,-73 953.33,-83.54" style=""/>
<text text-anchor="middle" x="917" y="-87.4" font-family="Times,serif" font-size="12.00" style="">bsp_spi</text>
</g>
<!-- node8&#45;&gt;node2 -->
<g id="edge21" class="edge" data-name="node8-&gt;node2">

<path fill="none" stroke="black" d="M893.79,-76.91C886.55,-72.96 878.5,-68.69 871,-65 849.77,-54.56 825.64,-43.82 805.96,-35.34" style=""/>
<polygon fill="black" stroke="black" points="807.5,-32.19 796.93,-31.48 804.75,-38.63 807.5,-32.19" style=""/>
</g>
<!-- node8&#45;&gt;node3 -->
<g id="edge22" class="edge" data-name="node8-&gt;node3">

<path fill="none" stroke="black" stroke-dasharray="1,5" d="M917,-72.81C917,-65.23 917,-56.1 917,-47.54" style=""/>
<polygon fill="black" stroke="black" points="920.5,-47.54 917,-37.54 913.5,-47.54 920.5,-47.54" style=""/>
</g>
</g>
</svg>